solid SOIC-8
facet normal 0 0 -1
  outer loop
    vertex -51.1779978021308 75 69
    vertex -47.3284155765481 75.7657295139133 69
    vertex -47.2529978021308 75 69
  endloop
endfacet
facet normal 0 0 -1
  outer loop
    vertex -51.1779978021308 75 69
    vertex -47.551770637024 76.502032472033 69
    vertex -47.3284155765481 75.7657295139133 69
  endloop
endfacet
facet normal 0 0 -1
  outer loop
    vertex -51.1779978021308 75 69
    vertex -47.9144795738433 77.1806131646019 69
    vertex -47.551770637024 76.502032472033 69
  endloop
endfacet
facet normal 0 0 -1
  outer loop
    vertex -51.1779978021308 75 69
    vertex -48.4026036859736 77.7753941161572 69
    vertex -47.9144795738433 77.1806131646019 69
  endloop
endfacet
facet normal 0 0 -1
  outer loop
    vertex -51.1779978021308 75 69
    vertex -48.9973846375288 78.2635182282875 69
    vertex -48.4026036859736 77.7753941161572 69
  endloop
endfacet
facet normal 0 0 -1
  outer loop
    vertex -51.1779978021308 75 69
    vertex -49.6759653300978 78.6262271651068 69
    vertex -48.9973846375288 78.2635182282875 69
  endloop
endfacet
facet normal 0 0 -1
  outer loop
    vertex -51.1779978021308 75 69
    vertex -50.4122682882175 78.8495822255827 69
    vertex -49.6759653300978 78.6262271651068 69
  endloop
endfacet
facet normal 0 0 -1
  outer loop
    vertex -51.1779978021308 75 69
    vertex -51.1779978021308 78.925 69
    vertex -50.4122682882175 78.8495822255827 69
  endloop
endfacet
facet normal 0 0 -1
  outer loop
    vertex -51.1779978021308 75 69
    vertex -51.9437273160441 78.8495822255827 69
    vertex -51.1779978021308 78.925 69
  endloop
endfacet
facet normal 0 0 -1
  outer loop
    vertex -51.1779978021308 75 69
    vertex -52.6800302741637 78.6262271651068 69
    vertex -51.9437273160441 78.8495822255827 69
  endloop
endfacet
facet normal 0 0 -1
  outer loop
    vertex -51.1779978021308 75 69
    vertex -53.3586109667327 78.2635182282875 69
    vertex -52.6800302741637 78.6262271651068 69
  endloop
endfacet
facet normal 0 0 -1
  outer loop
    vertex -51.1779978021308 75 69
    vertex -53.953391918288 77.7753941161572 69
    vertex -53.3586109667327 78.2635182282875 69
  endloop
endfacet
facet normal 0 0 -1
  outer loop
    vertex -51.1779978021308 75 69
    vertex -54.4415160304183 77.1806131646019 69
    vertex -53.953391918288 77.7753941161572 69
  endloop
endfacet
facet normal 0 0 -1
  outer loop
    vertex -51.1779978021308 75 69
    vertex -54.8042249672376 76.502032472033 69
    vertex -54.4415160304183 77.1806131646019 69
  endloop
endfacet
facet normal 0 0 -1
  outer loop
    vertex -51.1779978021308 75 69
    vertex -55.0275800277134 75.7657295139133 69
    vertex -54.8042249672376 76.502032472033 69
  endloop
endfacet
facet normal 0 0 -1
  outer loop
    vertex -51.1779978021308 75 69
    vertex -55.1029978021308 75 69
    vertex -55.0275800277134 75.7657295139133 69
  endloop
endfacet
facet normal 0 0 -1
  outer loop
    vertex -51.1779978021308 75 69
    vertex -55.0275800277134 74.2342704860867 69
    vertex -55.1029978021308 75 69
  endloop
endfacet
facet normal 0 0 -1
  outer loop
    vertex -51.1779978021308 75 69
    vertex -54.8042249672376 73.497967527967 69
    vertex -55.0275800277134 74.2342704860867 69
  endloop
endfacet
facet normal 0 0 -1
  outer loop
    vertex -51.1779978021308 75 69
    vertex -54.4415160304183 72.8193868353981 69
    vertex -54.8042249672376 73.497967527967 69
  endloop
endfacet
facet normal 0 0 -1
  outer loop
    vertex -51.1779978021308 75 69
    vertex -53.953391918288 72.2246058838428 69
    vertex -54.4415160304183 72.8193868353981 69
  endloop
endfacet
facet normal 0 0 -1
  outer loop
    vertex -51.1779978021308 75 69
    vertex -53.3586109667327 71.7364817717125 69
    vertex -53.953391918288 72.2246058838428 69
  endloop
endfacet
facet normal 0 0 -1
  outer loop
    vertex -51.1779978021308 75 69
    vertex -52.6800302741637 71.3737728348932 69
    vertex -53.3586109667327 71.7364817717125 69
  endloop
endfacet
facet normal 0 0 -1
  outer loop
    vertex -51.1779978021308 75 69
    vertex -51.9437273160441 71.1504177744173 69
    vertex -52.6800302741637 71.3737728348932 69
  endloop
endfacet
facet normal 0 0 -1
  outer loop
    vertex -51.1779978021308 75 69
    vertex -51.1779978021308 71.075 69
    vertex -51.9437273160441 71.1504177744173 69
  endloop
endfacet
facet normal 0 0 -1
  outer loop
    vertex -51.1779978021308 75 69
    vertex -50.4122682882175 71.1504177744173 69
    vertex -51.1779978021308 71.075 69
  endloop
endfacet
facet normal 0 0 -1
  outer loop
    vertex -51.1779978021308 75 69
    vertex -49.6759653300978 71.3737728348932 69
    vertex -50.4122682882175 71.1504177744173 69
  endloop
endfacet
facet normal 0 0 -1
  outer loop
    vertex -51.1779978021308 75 69
    vertex -48.9973846375288 71.7364817717125 69
    vertex -49.6759653300978 71.3737728348932 69
  endloop
endfacet
facet normal 0 0 -1
  outer loop
    vertex -51.1779978021308 75 69
    vertex -48.4026036859736 72.2246058838428 69
    vertex -48.9973846375288 71.7364817717125 69
  endloop
endfacet
facet normal 0 0 -1
  outer loop
    vertex -51.1779978021308 75 69
    vertex -47.9144795738433 72.8193868353981 69
    vertex -48.4026036859736 72.2246058838428 69
  endloop
endfacet
facet normal 0 0 -1
  outer loop
    vertex -51.1779978021308 75 69
    vertex -47.551770637024 73.497967527967 69
    vertex -47.9144795738433 72.8193868353981 69
  endloop
endfacet
facet normal 0 0 -1
  outer loop
    vertex -51.1779978021308 75 69
    vertex -47.3284155765481 74.2342704860867 69
    vertex -47.551770637024 73.497967527967 69
  endloop
endfacet
facet normal 0 0 -1
  outer loop
    vertex -51.1779978021308 75 69
    vertex -47.2529978021308 75 69
    vertex -47.3284155765481 74.2342704860867 69
  endloop
endfacet
facet normal 0 0 1
  outer loop
    vertex -51.1779978021308 75 69.1
    vertex -47.2529978021308 75 69.1
    vertex -47.3284155765481 75.7657295139133 69.1
  endloop
endfacet
facet normal 0 0 1
  outer loop
    vertex -51.1779978021308 75 69.1
    vertex -47.3284155765481 75.7657295139133 69.1
    vertex -47.551770637024 76.502032472033 69.1
  endloop
endfacet
facet normal 0 0 1
  outer loop
    vertex -51.1779978021308 75 69.1
    vertex -47.551770637024 76.502032472033 69.1
    vertex -47.9144795738433 77.1806131646019 69.1
  endloop
endfacet
facet normal 0 0 1
  outer loop
    vertex -51.1779978021308 75 69.1
    vertex -47.9144795738433 77.1806131646019 69.1
    vertex -48.4026036859736 77.7753941161572 69.1
  endloop
endfacet
facet normal 0 0 1
  outer loop
    vertex -51.1779978021308 75 69.1
    vertex -48.4026036859736 77.7753941161572 69.1
    vertex -48.9973846375288 78.2635182282875 69.1
  endloop
endfacet
facet normal 0 0 1
  outer loop
    vertex -51.1779978021308 75 69.1
    vertex -48.9973846375288 78.2635182282875 69.1
    vertex -49.6759653300978 78.6262271651068 69.1
  endloop
endfacet
facet normal 0 0 1
  outer loop
    vertex -51.1779978021308 75 69.1
    vertex -49.6759653300978 78.6262271651068 69.1
    vertex -50.4122682882175 78.8495822255827 69.1
  endloop
endfacet
facet normal 0 0 1
  outer loop
    vertex -51.1779978021308 75 69.1
    vertex -50.4122682882175 78.8495822255827 69.1
    vertex -51.1779978021308 78.925 69.1
  endloop
endfacet
facet normal 0 0 1
  outer loop
    vertex -51.1779978021308 75 69.1
    vertex -51.1779978021308 78.925 69.1
    vertex -51.9437273160441 78.8495822255827 69.1
  endloop
endfacet
facet normal 0 0 1
  outer loop
    vertex -51.1779978021308 75 69.1
    vertex -51.9437273160441 78.8495822255827 69.1
    vertex -52.6800302741637 78.6262271651068 69.1
  endloop
endfacet
facet normal 0 0 1
  outer loop
    vertex -51.1779978021308 75 69.1
    vertex -52.6800302741637 78.6262271651068 69.1
    vertex -53.3586109667327 78.2635182282875 69.1
  endloop
endfacet
facet normal 0 0 1
  outer loop
    vertex -51.1779978021308 75 69.1
    vertex -53.3586109667327 78.2635182282875 69.1
    vertex -53.953391918288 77.7753941161572 69.1
  endloop
endfacet
facet normal 0 0 1
  outer loop
    vertex -51.1779978021308 75 69.1
    vertex -53.953391918288 77.7753941161572 69.1
    vertex -54.4415160304183 77.1806131646019 69.1
  endloop
endfacet
facet normal 0 0 1
  outer loop
    vertex -51.1779978021308 75 69.1
    vertex -54.4415160304183 77.1806131646019 69.1
    vertex -54.8042249672376 76.502032472033 69.1
  endloop
endfacet
facet normal 0 0 1
  outer loop
    vertex -51.1779978021308 75 69.1
    vertex -54.8042249672376 76.502032472033 69.1
    vertex -55.0275800277134 75.7657295139133 69.1
  endloop
endfacet
facet normal 0 0 1
  outer loop
    vertex -51.1779978021308 75 69.1
    vertex -55.0275800277134 75.7657295139133 69.1
    vertex -55.1029978021308 75 69.1
  endloop
endfacet
facet normal 0 0 1
  outer loop
    vertex -51.1779978021308 75 69.1
    vertex -55.1029978021308 75 69.1
    vertex -55.0275800277134 74.2342704860867 69.1
  endloop
endfacet
facet normal 0 0 1
  outer loop
    vertex -51.1779978021308 75 69.1
    vertex -55.0275800277134 74.2342704860867 69.1
    vertex -54.8042249672376 73.497967527967 69.1
  endloop
endfacet
facet normal 0 0 1
  outer loop
    vertex -51.1779978021308 75 69.1
    vertex -54.8042249672376 73.497967527967 69.1
    vertex -54.4415160304183 72.8193868353981 69.1
  endloop
endfacet
facet normal 0 0 1
  outer loop
    vertex -51.1779978021308 75 69.1
    vertex -54.4415160304183 72.8193868353981 69.1
    vertex -53.953391918288 72.2246058838428 69.1
  endloop
endfacet
facet normal 0 0 1
  outer loop
    vertex -51.1779978021308 75 69.1
    vertex -53.953391918288 72.2246058838428 69.1
    vertex -53.3586109667327 71.7364817717125 69.1
  endloop
endfacet
facet normal 0 0 1
  outer loop
    vertex -51.1779978021308 75 69.1
    vertex -53.3586109667327 71.7364817717125 69.1
    vertex -52.6800302741637 71.3737728348932 69.1
  endloop
endfacet
facet normal 0 0 1
  outer loop
    vertex -51.1779978021308 75 69.1
    vertex -52.6800302741637 71.3737728348932 69.1
    vertex -51.9437273160441 71.1504177744173 69.1
  endloop
endfacet
facet normal 0 0 1
  outer loop
    vertex -51.1779978021308 75 69.1
    vertex -51.9437273160441 71.1504177744173 69.1
    vertex -51.1779978021308 71.075 69.1
  endloop
endfacet
facet normal 0 0 1
  outer loop
    vertex -51.1779978021308 75 69.1
    vertex -51.1779978021308 71.075 69.1
    vertex -50.4122682882175 71.1504177744173 69.1
  endloop
endfacet
facet normal 0 0 1
  outer loop
    vertex -51.1779978021308 75 69.1
    vertex -50.4122682882175 71.1504177744173 69.1
    vertex -49.6759653300978 71.3737728348932 69.1
  endloop
endfacet
facet normal 0 0 1
  outer loop
    vertex -51.1779978021308 75 69.1
    vertex -49.6759653300978 71.3737728348932 69.1
    vertex -48.9973846375288 71.7364817717125 69.1
  endloop
endfacet
facet normal 0 0 1
  outer loop
    vertex -51.1779978021308 75 69.1
    vertex -48.9973846375288 71.7364817717125 69.1
    vertex -48.4026036859736 72.2246058838428 69.1
  endloop
endfacet
facet normal 0 0 1
  outer loop
    vertex -51.1779978021308 75 69.1
    vertex -48.4026036859736 72.2246058838428 69.1
    vertex -47.9144795738433 72.8193868353981 69.1
  endloop
endfacet
facet normal 0 0 1
  outer loop
    vertex -51.1779978021308 75 69.1
    vertex -47.9144795738433 72.8193868353981 69.1
    vertex -47.551770637024 73.497967527967 69.1
  endloop
endfacet
facet normal 0 0 1
  outer loop
    vertex -51.1779978021308 75 69.1
    vertex -47.551770637024 73.497967527967 69.1
    vertex -47.3284155765481 74.2342704860867 69.1
  endloop
endfacet
facet normal 0 0 1
  outer loop
    vertex -51.1779978021308 75 69.1
    vertex -47.3284155765481 74.2342704860867 69.1
    vertex -47.2529978021308 75 69.1
  endloop
endfacet
facet normal .995184726672199 9.80171403295391E-02 0
  outer loop
    vertex -47.2529978021308 75 69
    vertex -47.3284155765481 75.7657295139133 69.1
    vertex -47.2529978021308 75 69.1
  endloop
endfacet
facet normal .956940335732205 .290284677254475 0
  outer loop
    vertex -47.3284155765481 75.7657295139133 69
    vertex -47.551770637024 76.502032472033 69.1
    vertex -47.3284155765481 75.7657295139133 69.1
  endloop
endfacet
facet normal .881921264348342 .471396736826023 0
  outer loop
    vertex -47.551770637024 76.502032472033 69
    vertex -47.9144795738433 77.1806131646019 69.1
    vertex -47.551770637024 76.502032472033 69.1
  endloop
endfacet
facet normal .773010453362756 .634393284163623 0
  outer loop
    vertex -47.9144795738433 77.1806131646019 69
    vertex -48.4026036859736 77.7753941161572 69.1
    vertex -47.9144795738433 77.1806131646019 69.1
  endloop
endfacet
facet normal .634393284163685 .773010453362704 0
  outer loop
    vertex -48.4026036859736 77.7753941161572 69
    vertex -48.9973846375288 78.2635182282875 69.1
    vertex -48.4026036859736 77.7753941161572 69.1
  endloop
endfacet
facet normal .471396736825969 .88192126434837 0
  outer loop
    vertex -48.9973846375288 78.2635182282875 69
    vertex -49.6759653300978 78.6262271651068 69.1
    vertex -48.9973846375288 78.2635182282875 69.1
  endloop
endfacet
facet normal .290284677254475 .956940335732205 0
  outer loop
    vertex -49.6759653300978 78.6262271651068 69
    vertex -50.4122682882175 78.8495822255827 69.1
    vertex -49.6759653300978 78.6262271651068 69.1
  endloop
endfacet
facet normal 9.80171403295391E-02 .995184726672199 0
  outer loop
    vertex -50.4122682882175 78.8495822255827 69
    vertex -51.1779978021308 78.925 69.1
    vertex -50.4122682882175 78.8495822255827 69.1
  endloop
endfacet
facet normal -9.80171403295391E-02 .995184726672199 0
  outer loop
    vertex -51.1779978021308 78.925 69
    vertex -51.9437273160441 78.8495822255827 69.1
    vertex -51.1779978021308 78.925 69.1
  endloop
endfacet
facet normal -.290284677254509 .956940335732195 0
  outer loop
    vertex -51.9437273160441 78.8495822255827 69
    vertex -52.6800302741637 78.6262271651068 69.1
    vertex -51.9437273160441 78.8495822255827 69.1
  endloop
endfacet
facet normal -.471396736825969 .88192126434837 0
  outer loop
    vertex -52.6800302741637 78.6262271651068 69
    vertex -53.3586109667327 78.2635182282875 69.1
    vertex -52.6800302741637 78.6262271651068 69.1
  endloop
endfacet
facet normal -.634393284163622 .773010453362756 0
  outer loop
    vertex -53.3586109667327 78.2635182282875 69
    vertex -53.953391918288 77.7753941161572 69.1
    vertex -53.3586109667327 78.2635182282875 69.1
  endloop
endfacet
facet normal -.773010453362756 .634393284163623 0
  outer loop
    vertex -53.953391918288 77.7753941161572 69
    vertex -54.4415160304183 77.1806131646019 69.1
    vertex -53.953391918288 77.7753941161572 69.1
  endloop
endfacet
facet normal -.881921264348342 .471396736826023 0
  outer loop
    vertex -54.4415160304183 77.1806131646019 69
    vertex -54.8042249672376 76.502032472033 69.1
    vertex -54.4415160304183 77.1806131646019 69.1
  endloop
endfacet
facet normal -.956940335732241 .290284677254357 0
  outer loop
    vertex -54.8042249672376 76.502032472033 69
    vertex -55.0275800277134 75.7657295139133 69.1
    vertex -54.8042249672376 76.502032472033 69.1
  endloop
endfacet
facet normal -.995184726672186 9.80171403296672E-02 0
  outer loop
    vertex -55.0275800277134 75.7657295139133 69
    vertex -55.1029978021308 75 69.1
    vertex -55.0275800277134 75.7657295139133 69.1
  endloop
endfacet
facet normal -.995184726672186 -9.80171403296672E-02 0
  outer loop
    vertex -55.1029978021308 75 69
    vertex -55.0275800277134 74.2342704860867 69.1
    vertex -55.1029978021308 75 69.1
  endloop
endfacet
facet normal -.956940335732241 -.290284677254357 0
  outer loop
    vertex -55.0275800277134 74.2342704860867 69
    vertex -54.8042249672376 73.497967527967 69.1
    vertex -55.0275800277134 74.2342704860867 69.1
  endloop
endfacet
facet normal -.881921264348342 -.471396736826023 0
  outer loop
    vertex -54.8042249672376 73.497967527967 69
    vertex -54.4415160304183 72.8193868353981 69.1
    vertex -54.8042249672376 73.497967527967 69.1
  endloop
endfacet
facet normal -.773010453362756 -.634393284163623 0
  outer loop
    vertex -54.4415160304183 72.8193868353981 69
    vertex -53.953391918288 72.2246058838428 69.1
    vertex -54.4415160304183 72.8193868353981 69.1
  endloop
endfacet
facet normal -.634393284163622 -.773010453362756 0
  outer loop
    vertex -53.953391918288 72.2246058838428 69
    vertex -53.3586109667327 71.7364817717125 69.1
    vertex -53.953391918288 72.2246058838428 69.1
  endloop
endfacet
facet normal -.471396736825969 -.88192126434837 0
  outer loop
    vertex -53.3586109667327 71.7364817717125 69
    vertex -52.6800302741637 71.3737728348932 69.1
    vertex -53.3586109667327 71.7364817717125 69.1
  endloop
endfacet
facet normal -.290284677254509 -.956940335732195 0
  outer loop
    vertex -52.6800302741637 71.3737728348932 69
    vertex -51.9437273160441 71.1504177744173 69.1
    vertex -52.6800302741637 71.3737728348932 69.1
  endloop
endfacet
facet normal -9.80171403295391E-02 -.995184726672199 0
  outer loop
    vertex -51.9437273160441 71.1504177744173 69
    vertex -51.1779978021308 71.075 69.1
    vertex -51.9437273160441 71.1504177744173 69.1
  endloop
endfacet
facet normal 9.80171403295391E-02 -.995184726672199 0
  outer loop
    vertex -51.1779978021308 71.075 69
    vertex -50.4122682882175 71.1504177744173 69.1
    vertex -51.1779978021308 71.075 69.1
  endloop
endfacet
facet normal .290284677254475 -.956940335732205 0
  outer loop
    vertex -50.4122682882175 71.1504177744173 69
    vertex -49.6759653300978 71.3737728348932 69.1
    vertex -50.4122682882175 71.1504177744173 69.1
  endloop
endfacet
facet normal .471396736825969 -.88192126434837 0
  outer loop
    vertex -49.6759653300978 71.3737728348932 69
    vertex -48.9973846375288 71.7364817717125 69.1
    vertex -49.6759653300978 71.3737728348932 69.1
  endloop
endfacet
facet normal .634393284163685 -.773010453362704 0
  outer loop
    vertex -48.9973846375288 71.7364817717125 69
    vertex -48.4026036859736 72.2246058838428 69.1
    vertex -48.9973846375288 71.7364817717125 69.1
  endloop
endfacet
facet normal .773010453362756 -.634393284163623 0
  outer loop
    vertex -48.4026036859736 72.2246058838428 69
    vertex -47.9144795738433 72.8193868353981 69.1
    vertex -48.4026036859736 72.2246058838428 69.1
  endloop
endfacet
facet normal .881921264348342 -.471396736826023 0
  outer loop
    vertex -47.9144795738433 72.8193868353981 69
    vertex -47.551770637024 73.497967527967 69.1
    vertex -47.9144795738433 72.8193868353981 69.1
  endloop
endfacet
facet normal .956940335732205 -.290284677254475 0
  outer loop
    vertex -47.551770637024 73.497967527967 69
    vertex -47.3284155765481 74.2342704860867 69.1
    vertex -47.551770637024 73.497967527967 69.1
  endloop
endfacet
facet normal .995184726672199 -9.80171403295391E-02 0
  outer loop
    vertex -47.3284155765481 74.2342704860867 69
    vertex -47.2529978021308 75 69.1
    vertex -47.3284155765481 74.2342704860867 69.1
  endloop
endfacet
facet normal .995184726672199 9.80171403295391E-02 0
  outer loop
    vertex -47.3284155765481 75.7657295139133 69
    vertex -47.3284155765481 75.7657295139133 69.1
    vertex -47.2529978021308 75 69
  endloop
endfacet
facet normal .956940335732205 .290284677254475 0
  outer loop
    vertex -47.551770637024 76.502032472033 69
    vertex -47.551770637024 76.502032472033 69.1
    vertex -47.3284155765481 75.7657295139133 69
  endloop
endfacet
facet normal .881921264348342 .471396736826023 0
  outer loop
    vertex -47.9144795738433 77.1806131646019 69
    vertex -47.9144795738433 77.1806131646019 69.1
    vertex -47.551770637024 76.502032472033 69
  endloop
endfacet
facet normal .773010453362756 .634393284163623 0
  outer loop
    vertex -48.4026036859736 77.7753941161572 69
    vertex -48.4026036859736 77.7753941161572 69.1
    vertex -47.9144795738433 77.1806131646019 69
  endloop
endfacet
facet normal .634393284163685 .773010453362704 0
  outer loop
    vertex -48.9973846375288 78.2635182282875 69
    vertex -48.9973846375288 78.2635182282875 69.1
    vertex -48.4026036859736 77.7753941161572 69
  endloop
endfacet
facet normal .471396736825969 .88192126434837 0
  outer loop
    vertex -49.6759653300978 78.6262271651068 69
    vertex -49.6759653300978 78.6262271651068 69.1
    vertex -48.9973846375288 78.2635182282875 69
  endloop
endfacet
facet normal .290284677254475 .956940335732205 0
  outer loop
    vertex -50.4122682882175 78.8495822255827 69
    vertex -50.4122682882175 78.8495822255827 69.1
    vertex -49.6759653300978 78.6262271651068 69
  endloop
endfacet
facet normal 9.80171403295391E-02 .995184726672199 0
  outer loop
    vertex -51.1779978021308 78.925 69
    vertex -51.1779978021308 78.925 69.1
    vertex -50.4122682882175 78.8495822255827 69
  endloop
endfacet
facet normal -9.80171403295391E-02 .995184726672199 0
  outer loop
    vertex -51.9437273160441 78.8495822255827 69
    vertex -51.9437273160441 78.8495822255827 69.1
    vertex -51.1779978021308 78.925 69
  endloop
endfacet
facet normal -.290284677254509 .956940335732195 0
  outer loop
    vertex -52.6800302741637 78.6262271651068 69
    vertex -52.6800302741637 78.6262271651068 69.1
    vertex -51.9437273160441 78.8495822255827 69
  endloop
endfacet
facet normal -.471396736825969 .88192126434837 0
  outer loop
    vertex -53.3586109667327 78.2635182282875 69
    vertex -53.3586109667327 78.2635182282875 69.1
    vertex -52.6800302741637 78.6262271651068 69
  endloop
endfacet
facet normal -.634393284163622 .773010453362756 0
  outer loop
    vertex -53.953391918288 77.7753941161572 69
    vertex -53.953391918288 77.7753941161572 69.1
    vertex -53.3586109667327 78.2635182282875 69
  endloop
endfacet
facet normal -.773010453362756 .634393284163623 0
  outer loop
    vertex -54.4415160304183 77.1806131646019 69
    vertex -54.4415160304183 77.1806131646019 69.1
    vertex -53.953391918288 77.7753941161572 69
  endloop
endfacet
facet normal -.881921264348342 .471396736826023 0
  outer loop
    vertex -54.8042249672376 76.502032472033 69
    vertex -54.8042249672376 76.502032472033 69.1
    vertex -54.4415160304183 77.1806131646019 69
  endloop
endfacet
facet normal -.956940335732241 .290284677254357 0
  outer loop
    vertex -55.0275800277134 75.7657295139133 69
    vertex -55.0275800277134 75.7657295139133 69.1
    vertex -54.8042249672376 76.502032472033 69
  endloop
endfacet
facet normal -.995184726672186 9.80171403296672E-02 0
  outer loop
    vertex -55.1029978021308 75 69
    vertex -55.1029978021308 75 69.1
    vertex -55.0275800277134 75.7657295139133 69
  endloop
endfacet
facet normal -.995184726672186 -9.80171403296672E-02 0
  outer loop
    vertex -55.0275800277134 74.2342704860867 69
    vertex -55.0275800277134 74.2342704860867 69.1
    vertex -55.1029978021308 75 69
  endloop
endfacet
facet normal -.956940335732241 -.290284677254357 0
  outer loop
    vertex -54.8042249672376 73.497967527967 69
    vertex -54.8042249672376 73.497967527967 69.1
    vertex -55.0275800277134 74.2342704860867 69
  endloop
endfacet
facet normal -.881921264348342 -.471396736826023 0
  outer loop
    vertex -54.4415160304183 72.8193868353981 69
    vertex -54.4415160304183 72.8193868353981 69.1
    vertex -54.8042249672376 73.497967527967 69
  endloop
endfacet
facet normal -.773010453362756 -.634393284163623 0
  outer loop
    vertex -53.953391918288 72.2246058838428 69
    vertex -53.953391918288 72.2246058838428 69.1
    vertex -54.4415160304183 72.8193868353981 69
  endloop
endfacet
facet normal -.634393284163622 -.773010453362756 0
  outer loop
    vertex -53.3586109667327 71.7364817717125 69
    vertex -53.3586109667327 71.7364817717125 69.1
    vertex -53.953391918288 72.2246058838428 69
  endloop
endfacet
facet normal -.471396736825969 -.88192126434837 0
  outer loop
    vertex -52.6800302741637 71.3737728348932 69
    vertex -52.6800302741637 71.3737728348932 69.1
    vertex -53.3586109667327 71.7364817717125 69
  endloop
endfacet
facet normal -.290284677254509 -.956940335732195 0
  outer loop
    vertex -51.9437273160441 71.1504177744173 69
    vertex -51.9437273160441 71.1504177744173 69.1
    vertex -52.6800302741637 71.3737728348932 69
  endloop
endfacet
facet normal -9.80171403295391E-02 -.995184726672199 0
  outer loop
    vertex -51.1779978021308 71.075 69
    vertex -51.1779978021308 71.075 69.1
    vertex -51.9437273160441 71.1504177744173 69
  endloop
endfacet
facet normal 9.80171403295391E-02 -.995184726672199 0
  outer loop
    vertex -50.4122682882175 71.1504177744173 69
    vertex -50.4122682882175 71.1504177744173 69.1
    vertex -51.1779978021308 71.075 69
  endloop
endfacet
facet normal .290284677254475 -.956940335732205 0
  outer loop
    vertex -49.6759653300978 71.3737728348932 69
    vertex -49.6759653300978 71.3737728348932 69.1
    vertex -50.4122682882175 71.1504177744173 69
  endloop
endfacet
facet normal .471396736825969 -.88192126434837 0
  outer loop
    vertex -48.9973846375288 71.7364817717125 69
    vertex -48.9973846375288 71.7364817717125 69.1
    vertex -49.6759653300978 71.3737728348932 69
  endloop
endfacet
facet normal .634393284163685 -.773010453362704 0
  outer loop
    vertex -48.4026036859736 72.2246058838428 69
    vertex -48.4026036859736 72.2246058838428 69.1
    vertex -48.9973846375288 71.7364817717125 69
  endloop
endfacet
facet normal .773010453362756 -.634393284163623 0
  outer loop
    vertex -47.9144795738433 72.8193868353981 69
    vertex -47.9144795738433 72.8193868353981 69.1
    vertex -48.4026036859736 72.2246058838428 69
  endloop
endfacet
facet normal .881921264348342 -.471396736826023 0
  outer loop
    vertex -47.551770637024 73.497967527967 69
    vertex -47.551770637024 73.497967527967 69.1
    vertex -47.9144795738433 72.8193868353981 69
  endloop
endfacet
facet normal .956940335732205 -.290284677254475 0
  outer loop
    vertex -47.3284155765481 74.2342704860867 69
    vertex -47.3284155765481 74.2342704860867 69.1
    vertex -47.551770637024 73.497967527967 69
  endloop
endfacet
facet normal .995184726672199 -9.80171403295391E-02 0
  outer loop
    vertex -47.2529978021308 75 69
    vertex -47.2529978021308 75 69.1
    vertex -47.3284155765481 74.2342704860867 69
  endloop
endfacet
facet normal 0 0 1
  outer loop
    vertex 67.3006160638715 96.1903728171871 69
    vertex 12 96.1903728171871 69
    vertex 67.3006160638715 -96.1903728171871 69
  endloop
endfacet
facet normal 0 0 1
  outer loop
    vertex 12 96.1903728171871 69
    vertex 11.7694233648388 93.8492889529935 69
    vertex 67.3006160638715 -96.1903728171871 69
  endloop
endfacet
facet normal 0 0 1
  outer loop
    vertex 11.7694233648388 93.8492889529935 69
    vertex 11.0865543901354 91.598171628806 69
    vertex 67.3006160638715 -96.1903728171871 69
  endloop
endfacet
facet normal 0 0 1
  outer loop
    vertex 11.0865543901354 91.598171628806 69
    vertex 9.97763534763054 89.5235300209518 69
    vertex 67.3006160638715 -96.1903728171871 69
  endloop
endfacet
facet normal 0 0 1
  outer loop
    vertex 9.97763534763054 89.5235300209518 69
    vertex 8.48528137423857 87.7050914429485 69
    vertex 67.3006160638715 -96.1903728171871 69
  endloop
endfacet
facet normal 0 0 1
  outer loop
    vertex 8.48528137423857 87.7050914429485 69
    vertex 6.66684279623523 86.2127374695565 69
    vertex 67.3006160638715 -96.1903728171871 69
  endloop
endfacet
facet normal 0 0 1
  outer loop
    vertex 6.66684279623523 86.2127374695565 69
    vertex 4.59220118838108 85.1038184270516 69
    vertex 67.3006160638715 -96.1903728171871 69
  endloop
endfacet
facet normal 0 0 1
  outer loop
    vertex 4.59220118838108 85.1038184270516 69
    vertex 2.34108386419354 84.4209494523483 69
    vertex 67.3006160638715 -96.1903728171871 69
  endloop
endfacet
facet normal 0 0 1
  outer loop
    vertex 2.34108386419354 84.4209494523483 69
    vertex 7.34788079488412E-16 84.1903728171871 69
    vertex 67.3006160638715 -96.1903728171871 69
  endloop
endfacet
facet normal 0 0 1
  outer loop
    vertex 7.34788079488412E-16 84.1903728171871 69
    vertex -67.3006160638715 -96.1903728171871 69
    vertex 67.3006160638715 -96.1903728171871 69
  endloop
endfacet
facet normal 0 0 1
  outer loop
    vertex 7.34788079488412E-16 84.1903728171871 69
    vertex -2.34108386419354 84.4209494523483 69
    vertex -67.3006160638715 -96.1903728171871 69
  endloop
endfacet
facet normal 0 0 1
  outer loop
    vertex -2.34108386419354 84.4209494523483 69
    vertex -4.59220118838108 85.1038184270516 69
    vertex -67.3006160638715 -96.1903728171871 69
  endloop
endfacet
facet normal 0 0 1
  outer loop
    vertex -4.59220118838108 85.1038184270516 69
    vertex -6.66684279623523 86.2127374695565 69
    vertex -67.3006160638715 -96.1903728171871 69
  endloop
endfacet
facet normal 0 0 1
  outer loop
    vertex -6.66684279623523 86.2127374695565 69
    vertex -8.48528137423857 87.7050914429485 69
    vertex -67.3006160638715 -96.1903728171871 69
  endloop
endfacet
facet normal 0 0 1
  outer loop
    vertex -8.48528137423857 87.7050914429485 69
    vertex -9.97763534763054 89.5235300209518 69
    vertex -67.3006160638715 -96.1903728171871 69
  endloop
endfacet
facet normal 0 0 1
  outer loop
    vertex -9.97763534763054 89.5235300209518 69
    vertex -11.0865543901354 91.598171628806 69
    vertex -67.3006160638715 -96.1903728171871 69
  endloop
endfacet
facet normal 0 0 1
  outer loop
    vertex -11.0865543901354 91.598171628806 69
    vertex -11.7694233648388 93.8492889529935 69
    vertex -67.3006160638715 -96.1903728171871 69
  endloop
endfacet
facet normal 0 0 1
  outer loop
    vertex -11.7694233648388 93.8492889529935 69
    vertex -12 96.1903728171871 69
    vertex -67.3006160638715 -96.1903728171871 69
  endloop
endfacet
facet normal 0 0 1
  outer loop
    vertex -67.3006160638715 96.1903728171871 69
    vertex -67.3006160638715 -96.1903728171871 69
    vertex -12 96.1903728171871 69
  endloop
endfacet
facet normal 0 0 -1
  outer loop
    vertex -76.1903728171871 -96.1903728171871 4
    vertex 76.1903728171871 96.1903728171871 4
    vertex 76.1903728171871 -96.1903728171871 4
  endloop
endfacet
facet normal 0 0 -1
  outer loop
    vertex 76.1903728171871 96.1903728171871 4
    vertex -76.1903728171871 -96.1903728171871 4
    vertex -76.1903728171871 96.1903728171871 4
  endloop
endfacet
facet normal 1 0 0
  outer loop
    vertex -12 96.1903728171871 69
    vertex -12 96.1903728171871 62.5
    vertex -12 96.7590491301056 62.5
  endloop
endfacet
facet normal .995184726672199 9.80171403295435E-02 0
  outer loop
    vertex -11.7694233648388 93.8492889529935 69
    vertex -11.7694233648388 93.8492889529935 62.5
    vertex -12 96.1903728171871 62.5
  endloop
endfacet
facet normal .956940335732199 .290284677254496 0
  outer loop
    vertex -11.0865543901354 91.598171628806 69
    vertex -11.0865543901354 91.598171628806 62.5
    vertex -11.7694233648388 93.8492889529935 62.5
  endloop
endfacet
facet normal .881921264348367 .471396736825975 0
  outer loop
    vertex -9.97763534763054 89.5235300209518 69
    vertex -9.97763534763054 89.5235300209518 62.5
    vertex -11.0865543901354 91.598171628806 62.5
  endloop
endfacet
facet normal .773010453362729 .634393284163655 0
  outer loop
    vertex -8.48528137423857 87.7050914429485 69
    vertex -8.48528137423857 87.7050914429485 62.5
    vertex -9.97763534763054 89.5235300209518 62.5
  endloop
endfacet
facet normal .634393284163653 .773010453362731 0
  outer loop
    vertex -6.66684279623523 86.2127374695565 69
    vertex -6.66684279623523 86.2127374695565 62.5
    vertex -8.48528137423857 87.7050914429485 62.5
  endloop
endfacet
facet normal .471396736825996 .881921264348356 0
  outer loop
    vertex -4.59220118838108 85.1038184270516 69
    vertex -4.59220118838108 85.1038184270516 62.5
    vertex -6.66684279623523 86.2127374695565 62.5
  endloop
endfacet
facet normal .290284677254457 .95694033573221 0
  outer loop
    vertex -2.34108386419354 84.4209494523483 69
    vertex -2.34108386419354 84.4209494523483 62.5
    vertex -4.59220118838108 85.1038184270516 62.5
  endloop
endfacet
facet normal 9.80171403295456E-02 .995184726672198 0
  outer loop
    vertex 7.34788079488412E-16 84.1903728171871 69
    vertex 7.34788079488412E-16 84.1903728171871 62.5
    vertex -2.34108386419354 84.4209494523483 62.5
  endloop
endfacet
facet normal -9.80171403295457E-02 .995184726672198 0
  outer loop
    vertex 2.34108386419354 84.4209494523483 69
    vertex 2.34108386419354 84.4209494523483 62.5
    vertex 7.34788079488412E-16 84.1903728171871 62.5
  endloop
endfacet
facet normal -.290284677254457 .95694033573221 0
  outer loop
    vertex 4.59220118838108 85.1038184270516 69
    vertex 4.59220118838108 85.1038184270516 62.5
    vertex 2.34108386419354 84.4209494523483 62.5
  endloop
endfacet
facet normal -.471396736825996 .881921264348356 0
  outer loop
    vertex 6.66684279623523 86.2127374695565 69
    vertex 6.66684279623523 86.2127374695565 62.5
    vertex 4.59220118838108 85.1038184270516 62.5
  endloop
endfacet
facet normal -.634393284163653 .773010453362731 0
  outer loop
    vertex 8.48528137423857 87.7050914429485 69
    vertex 8.48528137423857 87.7050914429485 62.5
    vertex 6.66684279623523 86.2127374695565 62.5
  endloop
endfacet
facet normal -.773010453362729 .634393284163655 0
  outer loop
    vertex 9.97763534763054 89.5235300209518 69
    vertex 9.97763534763054 89.5235300209518 62.5
    vertex 8.48528137423857 87.7050914429485 62.5
  endloop
endfacet
facet normal -.881921264348367 .471396736825975 0
  outer loop
    vertex 11.0865543901354 91.598171628806 69
    vertex 11.0865543901354 91.598171628806 62.5
    vertex 9.97763534763054 89.5235300209518 62.5
  endloop
endfacet
facet normal -.956940335732199 .290284677254496 0
  outer loop
    vertex 11.7694233648388 93.8492889529935 69
    vertex 11.7694233648388 93.8492889529935 62.5
    vertex 11.0865543901354 91.598171628806 62.5
  endloop
endfacet
facet normal -.995184726672199 9.80171403295435E-02 0
  outer loop
    vertex 12 96.1903728171871 69
    vertex 12 96.1903728171871 62.5
    vertex 11.7694233648388 93.8492889529935 62.5
  endloop
endfacet
facet normal .995184726672199 9.80171403295435E-02 0
  outer loop
    vertex -11.7694233648388 93.8492889529935 69
    vertex -12 96.1903728171871 62.5
    vertex -12 96.1903728171871 69
  endloop
endfacet
facet normal .956940335732199 .290284677254496 0
  outer loop
    vertex -11.0865543901354 91.598171628806 69
    vertex -11.7694233648388 93.8492889529935 62.5
    vertex -11.7694233648388 93.8492889529935 69
  endloop
endfacet
facet normal .881921264348367 .471396736825975 0
  outer loop
    vertex -9.97763534763054 89.5235300209518 69
    vertex -11.0865543901354 91.598171628806 62.5
    vertex -11.0865543901354 91.598171628806 69
  endloop
endfacet
facet normal .773010453362729 .634393284163655 0
  outer loop
    vertex -8.48528137423857 87.7050914429485 69
    vertex -9.97763534763054 89.5235300209518 62.5
    vertex -9.97763534763054 89.5235300209518 69
  endloop
endfacet
facet normal .634393284163653 .773010453362731 0
  outer loop
    vertex -6.66684279623523 86.2127374695565 69
    vertex -8.48528137423857 87.7050914429485 62.5
    vertex -8.48528137423857 87.7050914429485 69
  endloop
endfacet
facet normal .471396736825996 .881921264348356 0
  outer loop
    vertex -4.59220118838108 85.1038184270516 69
    vertex -6.66684279623523 86.2127374695565 62.5
    vertex -6.66684279623523 86.2127374695565 69
  endloop
endfacet
facet normal .290284677254457 .95694033573221 0
  outer loop
    vertex -2.34108386419354 84.4209494523483 69
    vertex -4.59220118838108 85.1038184270516 62.5
    vertex -4.59220118838108 85.1038184270516 69
  endloop
endfacet
facet normal 9.80171403295456E-02 .995184726672198 0
  outer loop
    vertex 7.34788079488412E-16 84.1903728171871 69
    vertex -2.34108386419354 84.4209494523483 62.5
    vertex -2.34108386419354 84.4209494523483 69
  endloop
endfacet
facet normal -9.80171403295457E-02 .995184726672198 0
  outer loop
    vertex 2.34108386419354 84.4209494523483 69
    vertex 7.34788079488412E-16 84.1903728171871 62.5
    vertex 7.34788079488412E-16 84.1903728171871 69
  endloop
endfacet
facet normal -.290284677254457 .95694033573221 0
  outer loop
    vertex 4.59220118838108 85.1038184270516 69
    vertex 2.34108386419354 84.4209494523483 62.5
    vertex 2.34108386419354 84.4209494523483 69
  endloop
endfacet
facet normal -.471396736825996 .881921264348356 0
  outer loop
    vertex 6.66684279623523 86.2127374695565 69
    vertex 4.59220118838108 85.1038184270516 62.5
    vertex 4.59220118838108 85.1038184270516 69
  endloop
endfacet
facet normal -.634393284163653 .773010453362731 0
  outer loop
    vertex 8.48528137423857 87.7050914429485 69
    vertex 6.66684279623523 86.2127374695565 62.5
    vertex 6.66684279623523 86.2127374695565 69
  endloop
endfacet
facet normal -.773010453362729 .634393284163655 0
  outer loop
    vertex 9.97763534763054 89.5235300209518 69
    vertex 8.48528137423857 87.7050914429485 62.5
    vertex 8.48528137423857 87.7050914429485 69
  endloop
endfacet
facet normal -.881921264348367 .471396736825975 0
  outer loop
    vertex 11.0865543901354 91.598171628806 69
    vertex 9.97763534763054 89.5235300209518 62.5
    vertex 9.97763534763054 89.5235300209518 69
  endloop
endfacet
facet normal -.956940335732199 .290284677254496 0
  outer loop
    vertex 11.7694233648388 93.8492889529935 69
    vertex 11.0865543901354 91.598171628806 62.5
    vertex 11.0865543901354 91.598171628806 69
  endloop
endfacet
facet normal -.995184726672199 9.80171403295435E-02 0
  outer loop
    vertex 12 96.1903728171871 69
    vertex 11.7694233648388 93.8492889529935 62.5
    vertex 11.7694233648388 93.8492889529935 69
  endloop
endfacet
facet normal -1 0 0
  outer loop
    vertex 12 96.1903728171871 69
    vertex 12 96.7590491301056 62.5
    vertex 12 96.1903728171871 62.5
  endloop
endfacet
facet normal 0 0 1
  outer loop
    vertex -12 96.7590491301056 62.5
    vertex -12 96.1903728171871 62.5
    vertex 0 96.7590491301056 62.5
  endloop
endfacet
facet normal 0 0 1
  outer loop
    vertex -12 96.1903728171871 62.5
    vertex -11.7694233648388 93.8492889529935 62.5
    vertex 0 96.7590491301056 62.5
  endloop
endfacet
facet normal 0 0 1
  outer loop
    vertex -11.7694233648388 93.8492889529935 62.5
    vertex -11.0865543901354 91.598171628806 62.5
    vertex 0 96.7590491301056 62.5
  endloop
endfacet
facet normal 0 0 1
  outer loop
    vertex -11.0865543901354 91.598171628806 62.5
    vertex -9.97763534763054 89.5235300209518 62.5
    vertex 0 96.7590491301056 62.5
  endloop
endfacet
facet normal 0 0 1
  outer loop
    vertex -9.97763534763054 89.5235300209518 62.5
    vertex -8.48528137423857 87.7050914429485 62.5
    vertex 0 96.7590491301056 62.5
  endloop
endfacet
facet normal 0 0 1
  outer loop
    vertex -8.48528137423857 87.7050914429485 62.5
    vertex -6.66684279623523 86.2127374695565 62.5
    vertex 0 96.7590491301056 62.5
  endloop
endfacet
facet normal 0 0 1
  outer loop
    vertex -6.66684279623523 86.2127374695565 62.5
    vertex -4.59220118838108 85.1038184270516 62.5
    vertex 0 96.7590491301056 62.5
  endloop
endfacet
facet normal 0 0 1
  outer loop
    vertex -4.59220118838108 85.1038184270516 62.5
    vertex -2.34108386419354 84.4209494523483 62.5
    vertex 0 96.7590491301056 62.5
  endloop
endfacet
facet normal 0 0 1
  outer loop
    vertex -2.34108386419354 84.4209494523483 62.5
    vertex 7.34788079488412E-16 84.1903728171871 62.5
    vertex 0 96.7590491301056 62.5
  endloop
endfacet
facet normal 0 0 1
  outer loop
    vertex 7.34788079488412E-16 84.1903728171871 62.5
    vertex 2.34108386419354 84.4209494523483 62.5
    vertex 0 96.7590491301056 62.5
  endloop
endfacet
facet normal 0 0 1
  outer loop
    vertex 2.34108386419354 84.4209494523483 62.5
    vertex 4.59220118838108 85.1038184270516 62.5
    vertex 0 96.7590491301056 62.5
  endloop
endfacet
facet normal 0 0 1
  outer loop
    vertex 4.59220118838108 85.1038184270516 62.5
    vertex 6.66684279623523 86.2127374695565 62.5
    vertex 0 96.7590491301056 62.5
  endloop
endfacet
facet normal 0 0 1
  outer loop
    vertex 6.66684279623523 86.2127374695565 62.5
    vertex 8.48528137423857 87.7050914429485 62.5
    vertex 0 96.7590491301056 62.5
  endloop
endfacet
facet normal 0 0 1
  outer loop
    vertex 8.48528137423857 87.7050914429485 62.5
    vertex 9.97763534763054 89.5235300209518 62.5
    vertex 0 96.7590491301056 62.5
  endloop
endfacet
facet normal 0 0 1
  outer loop
    vertex 9.97763534763054 89.5235300209518 62.5
    vertex 11.0865543901354 91.598171628806 62.5
    vertex 0 96.7590491301056 62.5
  endloop
endfacet
facet normal 0 0 1
  outer loop
    vertex 11.0865543901354 91.598171628806 62.5
    vertex 11.7694233648388 93.8492889529935 62.5
    vertex 0 96.7590491301056 62.5
  endloop
endfacet
facet normal 0 0 1
  outer loop
    vertex 11.7694233648388 93.8492889529935 62.5
    vertex 12 96.1903728171871 62.5
    vertex 0 96.7590491301056 62.5
  endloop
endfacet
facet normal 0 0 1
  outer loop
    vertex 12 96.1903728171871 62.5
    vertex 12 96.7590491301056 62.5
    vertex 0 96.7590491301056 62.5
  endloop
endfacet
facet normal .921118787038767 0 .389281620635024
  outer loop
    vertex 67.3006160638715 96.1903728171871 69
    vertex 78.5 -98.5 42.5
    vertex 78.5 98.5 42.5
  endloop
endfacet
facet normal 0 -.996223440096615 8.68265938642462E-02
  outer loop
    vertex 67.3006160638715 -96.1903728171871 69
    vertex -78.5 -98.5 42.5
    vertex 78.5 -98.5 42.5
  endloop
endfacet
facet normal -.921118787038767 0 .389281620635024
  outer loop
    vertex -67.3006160638715 -96.1903728171871 69
    vertex -78.5 98.5 42.5
    vertex -78.5 -98.5 42.5
  endloop
endfacet
facet normal 1 0 0
  outer loop
    vertex 78.5 98.5 42.5
    vertex 78.5 -98.5 30.5
    vertex 78.5 98.5 30.5
  endloop
endfacet
facet normal 0 -1 0
  outer loop
    vertex 78.5 -98.5 42.5
    vertex -78.5 -98.5 30.5
    vertex 78.5 -98.5 30.5
  endloop
endfacet
facet normal -1 0 0
  outer loop
    vertex -78.5 -98.5 42.5
    vertex -78.5 98.5 30.5
    vertex -78.5 -98.5 30.5
  endloop
endfacet
facet normal .996223440096615 0 -8.68265938642462E-02
  outer loop
    vertex 78.5 98.5 30.5
    vertex 76.1903728171871 -96.1903728171871 4
    vertex 76.1903728171871 96.1903728171871 4
  endloop
endfacet
facet normal 0 -.996223440096615 -8.68265938642462E-02
  outer loop
    vertex 78.5 -98.5 30.5
    vertex -76.1903728171871 -96.1903728171871 4
    vertex 76.1903728171871 -96.1903728171871 4
  endloop
endfacet
facet normal -.996223440096615 0 -8.68265938642462E-02
  outer loop
    vertex -78.5 -98.5 30.5
    vertex -76.1903728171871 96.1903728171871 4
    vertex -76.1903728171871 -96.1903728171871 4
  endloop
endfacet
facet normal .921118787038767 0 .389281620635024
  outer loop
    vertex 67.3006160638715 -96.1903728171871 69
    vertex 78.5 -98.5 42.5
    vertex 67.3006160638715 96.1903728171871 69
  endloop
endfacet
facet normal 0 -.996223440096615 8.68265938642462E-02
  outer loop
    vertex -67.3006160638715 -96.1903728171871 69
    vertex -78.5 -98.5 42.5
    vertex 67.3006160638715 -96.1903728171871 69
  endloop
endfacet
facet normal -.921118787038767 0 .389281620635024
  outer loop
    vertex -67.3006160638715 96.1903728171871 69
    vertex -78.5 98.5 42.5
    vertex -67.3006160638715 -96.1903728171871 69
  endloop
endfacet
facet normal 1 0 0
  outer loop
    vertex 78.5 -98.5 42.5
    vertex 78.5 -98.5 30.5
    vertex 78.5 98.5 42.5
  endloop
endfacet
facet normal 0 -1 0
  outer loop
    vertex -78.5 -98.5 42.5
    vertex -78.5 -98.5 30.5
    vertex 78.5 -98.5 42.5
  endloop
endfacet
facet normal -1 0 0
  outer loop
    vertex -78.5 98.5 42.5
    vertex -78.5 98.5 30.5
    vertex -78.5 -98.5 42.5
  endloop
endfacet
facet normal .996223440096615 0 -8.68265938642462E-02
  outer loop
    vertex 78.5 -98.5 30.5
    vertex 76.1903728171871 -96.1903728171871 4
    vertex 78.5 98.5 30.5
  endloop
endfacet
facet normal 0 -.996223440096615 -8.68265938642462E-02
  outer loop
    vertex -78.5 -98.5 30.5
    vertex -76.1903728171871 -96.1903728171871 4
    vertex 78.5 -98.5 30.5
  endloop
endfacet
facet normal -.996223440096615 0 -8.68265938642462E-02
  outer loop
    vertex -78.5 98.5 30.5
    vertex -76.1903728171871 96.1903728171871 4
    vertex -78.5 -98.5 30.5
  endloop
endfacet
facet normal 0 .996223440096615 -8.68265938642462E-02
  outer loop
    vertex 78.5 98.5 30.5
    vertex 76.1903728171871 96.1903728171871 4
    vertex -78.5 98.5 30.5
  endloop
endfacet
facet normal 0 .996223440096615 -8.68265938642462E-02
  outer loop
    vertex 76.1903728171871 96.1903728171871 4
    vertex -76.1903728171871 96.1903728171871 4
    vertex -78.5 98.5 30.5
  endloop
endfacet
facet normal 0 1 0
  outer loop
    vertex 78.5 98.5 42.5
    vertex 78.5 98.5 30.5
    vertex -78.5 98.5 42.5
  endloop
endfacet
facet normal 0 1 0
  outer loop
    vertex -78.5 98.5 42.5
    vertex 78.5 98.5 30.5
    vertex -78.5 98.5 30.5
  endloop
endfacet
facet normal 0 .996223440096615 8.68265938642462E-02
  outer loop
    vertex 78.5 98.5 42.5
    vertex 12 96.1903728171871 69
    vertex 67.3006160638715 96.1903728171871 69
  endloop
endfacet
facet normal 1.32162836832532E-04 .996194689391471 8.71557419864816E-02
  outer loop
    vertex 12 96.1903728171871 69
    vertex 78.5 98.5 42.5
    vertex 12 96.7590491301056 62.5
  endloop
endfacet
facet normal 0 .996232758188125 8.67196143492459E-02
  outer loop
    vertex 78.5 98.5 42.5
    vertex -12 96.7590491301056 62.5
    vertex 12 96.7590491301056 62.5
  endloop
endfacet
facet normal 0 .996232758188124 8.67196143492459E-02
  outer loop
    vertex 78.5 98.5 42.5
    vertex -78.5 98.5 42.5
    vertex -12 96.7590491301056 62.5
  endloop
endfacet
facet normal -3.71386312050315E-05 .996222081650773 8.68421709316532E-02
  outer loop
    vertex -67.3006160638715 96.1903728171871 69
    vertex -12 96.7590491301056 62.5
    vertex -78.5 98.5 42.5
  endloop
endfacet
facet normal 0 .996194698091746 .087155742747657
  outer loop
    vertex -67.3006160638715 96.1903728171871 69
    vertex -12 96.1903728171871 69
    vertex -12 96.7590491301056 62.5
  endloop
endfacet
facet normal -1 0 0
  outer loop
    vertex -165.40505 86.82 10
    vertex -165.40505 86.82 0
    vertex -165.40505 63.18 0
  endloop
endfacet
facet normal -1 0 0
  outer loop
    vertex -165.40505 86.82 10
    vertex -165.40505 63.18 0
    vertex -165.40505 63.18 10
  endloop
endfacet
facet normal 1 0 0
  outer loop
    vertex -78.5 63.18 41.5
    vertex -78.5 63.18 31.5
    vertex -78.5 86.8199999999999 31.5
  endloop
endfacet
facet normal 1 0 0
  outer loop
    vertex -78.5 63.18 41.5
    vertex -78.5 86.8199999999999 31.5
    vertex -78.5 86.8199999999999 41.5
  endloop
endfacet
facet normal 4.00295975987101E-15 1 2.00147987993551E-15
  outer loop
    vertex -78.5 86.8199999999999 31.5
    vertex -103.350607793674 86.82 31.5
    vertex -108.350607793674 86.82 41.5
  endloop
endfacet
facet normal 0 1 0
  outer loop
    vertex -103.350607793674 86.82 31.5
    vertex -128.10905 86.82 0
    vertex -133.10905 86.82 10
  endloop
endfacet
facet normal 0 1 0
  outer loop
    vertex -128.10905 86.82 0
    vertex -165.40505 86.82 0
    vertex -165.40505 86.82 10
  endloop
endfacet
facet normal 3.33246088970742E-15 1 0
  outer loop
    vertex -78.5 86.8199999999999 31.5
    vertex -108.350607793674 86.82 41.5
    vertex -78.5 86.8199999999999 41.5
  endloop
endfacet
facet normal 0 1 0
  outer loop
    vertex -103.350607793674 86.82 31.5
    vertex -133.10905 86.82 10
    vertex -108.350607793674 86.82 41.5
  endloop
endfacet
facet normal 0 1 0
  outer loop
    vertex -128.10905 86.82 0
    vertex -165.40505 86.82 10
    vertex -133.10905 86.82 10
  endloop
endfacet
facet normal 4.00295975987101E-15 -1 1.19490781805769E-14
  outer loop
    vertex -78.5 63.18 31.5
    vertex -108.350607793674 63.18 41.5
    vertex -103.350607793674 63.1799999999999 31.5
  endloop
endfacet
facet normal -2.45568522481665E-15 -1 -1.22784261240833E-15
  outer loop
    vertex -103.350607793674 63.1799999999999 31.5
    vertex -133.10905 63.18 10
    vertex -128.10905 63.18 0
  endloop
endfacet
facet normal 0 -1 0
  outer loop
    vertex -128.10905 63.18 0
    vertex -165.40505 63.18 10
    vertex -165.40505 63.18 0
  endloop
endfacet
facet normal 0 -1 0
  outer loop
    vertex -78.5 63.18 31.5
    vertex -78.5 63.18 41.5
    vertex -108.350607793674 63.18 41.5
  endloop
endfacet
facet normal -7.73540845817246E-15 -1 6.07989407155518E-15
  outer loop
    vertex -103.350607793674 63.1799999999999 31.5
    vertex -108.350607793674 63.18 41.5
    vertex -133.10905 63.18 10
  endloop
endfacet
facet normal 0 -1 0
  outer loop
    vertex -128.10905 63.18 0
    vertex -133.10905 63.18 10
    vertex -165.40505 63.18 10
  endloop
endfacet
facet normal 0 0 1
  outer loop
    vertex -78.5 86.8199999999999 41.5
    vertex -108.350607793674 86.82 41.5
    vertex -108.350607793674 63.18 41.5
  endloop
endfacet
facet normal -.786215963681493 0 .617951825349179
  outer loop
    vertex -108.350607793674 86.82 41.5
    vertex -133.10905 86.82 10
    vertex -133.10905 63.18 10
  endloop
endfacet
facet normal 0 0 1
  outer loop
    vertex -133.10905 86.82 10
    vertex -165.40505 86.82 10
    vertex -165.40505 63.18 10
  endloop
endfacet
facet normal 0 0 1
  outer loop
    vertex -78.5 86.8199999999999 41.5
    vertex -108.350607793674 63.18 41.5
    vertex -78.5 63.18 41.5
  endloop
endfacet
facet normal -.786215963681493 0 .617951825349179
  outer loop
    vertex -108.350607793674 86.82 41.5
    vertex -133.10905 63.18 10
    vertex -108.350607793674 63.18 41.5
  endloop
endfacet
facet normal 0 0 1
  outer loop
    vertex -133.10905 86.82 10
    vertex -165.40505 63.18 10
    vertex -133.10905 63.18 10
  endloop
endfacet
facet normal 0 0 -1
  outer loop
    vertex -78.5 86.8199999999999 31.5
    vertex -103.350607793674 63.1799999999999 31.5
    vertex -103.350607793674 86.82 31.5
  endloop
endfacet
facet normal .786215963681493 0 -.617951825349179
  outer loop
    vertex -103.350607793674 86.82 31.5
    vertex -128.10905 63.18 0
    vertex -128.10905 86.82 0
  endloop
endfacet
facet normal 0 0 -1
  outer loop
    vertex -128.10905 86.82 0
    vertex -165.40505 63.18 0
    vertex -165.40505 86.82 0
  endloop
endfacet
facet normal 0 0 -1
  outer loop
    vertex -78.5 86.8199999999999 31.5
    vertex -78.5 63.18 31.5
    vertex -103.350607793674 63.1799999999999 31.5
  endloop
endfacet
facet normal .786215963681493 0 -.617951825349179
  outer loop
    vertex -103.350607793674 86.82 31.5
    vertex -103.350607793674 63.1799999999999 31.5
    vertex -128.10905 63.18 0
  endloop
endfacet
facet normal 0 0 -1
  outer loop
    vertex -128.10905 86.82 0
    vertex -128.10905 63.18 0
    vertex -165.40505 63.18 0
  endloop
endfacet
facet normal -1 0 0
  outer loop
    vertex -165.40505 36.82 10
    vertex -165.40505 36.82 0
    vertex -165.40505 13.18 0
  endloop
endfacet
facet normal -1 0 0
  outer loop
    vertex -165.40505 36.82 10
    vertex -165.40505 13.18 0
    vertex -165.40505 13.18 10
  endloop
endfacet
facet normal 1 0 0
  outer loop
    vertex -78.5 13.18 41.5
    vertex -78.5 13.18 31.5
    vertex -78.5 36.8199999999999 31.5
  endloop
endfacet
facet normal 1 0 0
  outer loop
    vertex -78.5 13.18 41.5
    vertex -78.5 36.8199999999999 31.5
    vertex -78.5 36.8199999999999 41.5
  endloop
endfacet
facet normal 4.00295975987101E-15 1 2.00147987993551E-15
  outer loop
    vertex -78.5 36.8199999999999 31.5
    vertex -103.350607793674 36.82 31.5
    vertex -108.350607793674 36.82 41.5
  endloop
endfacet
facet normal 0 1 0
  outer loop
    vertex -103.350607793674 36.82 31.5
    vertex -128.10905 36.82 0
    vertex -133.10905 36.82 10
  endloop
endfacet
facet normal 0 1 0
  outer loop
    vertex -128.10905 36.82 0
    vertex -165.40505 36.82 0
    vertex -165.40505 36.82 10
  endloop
endfacet
facet normal 3.33246088970742E-15 1 0
  outer loop
    vertex -78.5 36.8199999999999 31.5
    vertex -108.350607793674 36.82 41.5
    vertex -78.5 36.8199999999999 41.5
  endloop
endfacet
facet normal 0 1 0
  outer loop
    vertex -103.350607793674 36.82 31.5
    vertex -133.10905 36.82 10
    vertex -108.350607793674 36.82 41.5
  endloop
endfacet
facet normal 0 1 0
  outer loop
    vertex -128.10905 36.82 0
    vertex -165.40505 36.82 10
    vertex -133.10905 36.82 10
  endloop
endfacet
facet normal 4.00295975987101E-15 -1 1.19490781805769E-14
  outer loop
    vertex -78.5 13.18 31.5
    vertex -108.350607793674 13.18 41.5
    vertex -103.350607793674 13.1799999999999 31.5
  endloop
endfacet
facet normal -2.45568522481665E-15 -1 -1.22784261240833E-15
  outer loop
    vertex -103.350607793674 13.1799999999999 31.5
    vertex -133.10905 13.18 10
    vertex -128.10905 13.18 0
  endloop
endfacet
facet normal 0 -1 0
  outer loop
    vertex -128.10905 13.18 0
    vertex -165.40505 13.18 10
    vertex -165.40505 13.18 0
  endloop
endfacet
facet normal 0 -1 0
  outer loop
    vertex -78.5 13.18 31.5
    vertex -78.5 13.18 41.5
    vertex -108.350607793674 13.18 41.5
  endloop
endfacet
facet normal -7.73540845817246E-15 -1 6.07989407155518E-15
  outer loop
    vertex -103.350607793674 13.1799999999999 31.5
    vertex -108.350607793674 13.18 41.5
    vertex -133.10905 13.18 10
  endloop
endfacet
facet normal 0 -1 0
  outer loop
    vertex -128.10905 13.18 0
    vertex -133.10905 13.18 10
    vertex -165.40505 13.18 10
  endloop
endfacet
facet normal 0 0 1
  outer loop
    vertex -78.5 36.8199999999999 41.5
    vertex -108.350607793674 36.82 41.5
    vertex -108.350607793674 13.18 41.5
  endloop
endfacet
facet normal -.786215963681492 0 .617951825349179
  outer loop
    vertex -108.350607793674 36.82 41.5
    vertex -133.10905 36.82 10
    vertex -133.10905 13.18 10
  endloop
endfacet
facet normal 0 0 1
  outer loop
    vertex -133.10905 36.82 10
    vertex -165.40505 36.82 10
    vertex -165.40505 13.18 10
  endloop
endfacet
facet normal 0 0 1
  outer loop
    vertex -78.5 36.8199999999999 41.5
    vertex -108.350607793674 13.18 41.5
    vertex -78.5 13.18 41.5
  endloop
endfacet
facet normal -.786215963681492 0 .617951825349179
  outer loop
    vertex -108.350607793674 36.82 41.5
    vertex -133.10905 13.18 10
    vertex -108.350607793674 13.18 41.5
  endloop
endfacet
facet normal 0 0 1
  outer loop
    vertex -133.10905 36.82 10
    vertex -165.40505 13.18 10
    vertex -133.10905 13.18 10
  endloop
endfacet
facet normal 0 0 -1
  outer loop
    vertex -78.5 36.8199999999999 31.5
    vertex -103.350607793674 13.1799999999999 31.5
    vertex -103.350607793674 36.82 31.5
  endloop
endfacet
facet normal .786215963681492 0 -.617951825349179
  outer loop
    vertex -103.350607793674 36.82 31.5
    vertex -128.10905 13.18 0
    vertex -128.10905 36.82 0
  endloop
endfacet
facet normal 0 0 -1
  outer loop
    vertex -128.10905 36.82 0
    vertex -165.40505 13.18 0
    vertex -165.40505 36.82 0
  endloop
endfacet
facet normal 0 0 -1
  outer loop
    vertex -78.5 36.8199999999999 31.5
    vertex -78.5 13.18 31.5
    vertex -103.350607793674 13.1799999999999 31.5
  endloop
endfacet
facet normal .786215963681492 0 -.617951825349179
  outer loop
    vertex -103.350607793674 36.82 31.5
    vertex -103.350607793674 13.1799999999999 31.5
    vertex -128.10905 13.18 0
  endloop
endfacet
facet normal 0 0 -1
  outer loop
    vertex -128.10905 36.82 0
    vertex -128.10905 13.18 0
    vertex -165.40505 13.18 0
  endloop
endfacet
facet normal -1 0 0
  outer loop
    vertex -165.40505 -13.18 10
    vertex -165.40505 -13.18 0
    vertex -165.40505 -36.82 0
  endloop
endfacet
facet normal -1 0 0
  outer loop
    vertex -165.40505 -13.18 10
    vertex -165.40505 -36.82 0
    vertex -165.40505 -36.82 10
  endloop
endfacet
facet normal 1 0 0
  outer loop
    vertex -78.5 -36.82 41.5
    vertex -78.5 -36.82 31.5
    vertex -78.5 -13.1800000000001 31.5
  endloop
endfacet
facet normal 1 0 0
  outer loop
    vertex -78.5 -36.82 41.5
    vertex -78.5 -13.1800000000001 31.5
    vertex -78.5 -13.1800000000001 41.5
  endloop
endfacet
facet normal 4.00295975987101E-15 1 2.00147987993551E-15
  outer loop
    vertex -78.5 -13.1800000000001 31.5
    vertex -103.350607793674 -13.18 31.5
    vertex -108.350607793674 -13.18 41.5
  endloop
endfacet
facet normal 0 1 0
  outer loop
    vertex -103.350607793674 -13.18 31.5
    vertex -128.10905 -13.18 0
    vertex -133.10905 -13.18 10
  endloop
endfacet
facet normal 0 1 0
  outer loop
    vertex -128.10905 -13.18 0
    vertex -165.40505 -13.18 0
    vertex -165.40505 -13.18 10
  endloop
endfacet
facet normal 3.33246088970742E-15 1 0
  outer loop
    vertex -78.5 -13.1800000000001 31.5
    vertex -108.350607793674 -13.18 41.5
    vertex -78.5 -13.1800000000001 41.5
  endloop
endfacet
facet normal 0 1 0
  outer loop
    vertex -103.350607793674 -13.18 31.5
    vertex -133.10905 -13.18 10
    vertex -108.350607793674 -13.18 41.5
  endloop
endfacet
facet normal 0 1 0
  outer loop
    vertex -128.10905 -13.18 0
    vertex -165.40505 -13.18 10
    vertex -133.10905 -13.18 10
  endloop
endfacet
facet normal 4.00295975987101E-15 -1 1.19490781805769E-14
  outer loop
    vertex -78.5 -36.82 31.5
    vertex -108.350607793674 -36.82 41.5
    vertex -103.350607793674 -36.8200000000001 31.5
  endloop
endfacet
facet normal -2.45568522481665E-15 -1 -1.22784261240833E-15
  outer loop
    vertex -103.350607793674 -36.8200000000001 31.5
    vertex -133.10905 -36.82 10
    vertex -128.10905 -36.82 0
  endloop
endfacet
facet normal 0 -1 0
  outer loop
    vertex -128.10905 -36.82 0
    vertex -165.40505 -36.82 10
    vertex -165.40505 -36.82 0
  endloop
endfacet
facet normal 0 -1 0
  outer loop
    vertex -78.5 -36.82 31.5
    vertex -78.5 -36.82 41.5
    vertex -108.350607793674 -36.82 41.5
  endloop
endfacet
facet normal -7.73540845817246E-15 -1 6.07989407155518E-15
  outer loop
    vertex -103.350607793674 -36.8200000000001 31.5
    vertex -108.350607793674 -36.82 41.5
    vertex -133.10905 -36.82 10
  endloop
endfacet
facet normal 0 -1 0
  outer loop
    vertex -128.10905 -36.82 0
    vertex -133.10905 -36.82 10
    vertex -165.40505 -36.82 10
  endloop
endfacet
facet normal 0 0 1
  outer loop
    vertex -78.5 -13.1800000000001 41.5
    vertex -108.350607793674 -13.18 41.5
    vertex -108.350607793674 -36.82 41.5
  endloop
endfacet
facet normal -.786215963681492 0 .617951825349179
  outer loop
    vertex -108.350607793674 -13.18 41.5
    vertex -133.10905 -13.18 10
    vertex -133.10905 -36.82 10
  endloop
endfacet
facet normal 0 0 1
  outer loop
    vertex -133.10905 -13.18 10
    vertex -165.40505 -13.18 10
    vertex -165.40505 -36.82 10
  endloop
endfacet
facet normal 0 0 1
  outer loop
    vertex -78.5 -13.1800000000001 41.5
    vertex -108.350607793674 -36.82 41.5
    vertex -78.5 -36.82 41.5
  endloop
endfacet
facet normal -.786215963681492 0 .617951825349179
  outer loop
    vertex -108.350607793674 -13.18 41.5
    vertex -133.10905 -36.82 10
    vertex -108.350607793674 -36.82 41.5
  endloop
endfacet
facet normal 0 0 1
  outer loop
    vertex -133.10905 -13.18 10
    vertex -165.40505 -36.82 10
    vertex -133.10905 -36.82 10
  endloop
endfacet
facet normal 0 0 -1
  outer loop
    vertex -78.5 -13.1800000000001 31.5
    vertex -103.350607793674 -36.8200000000001 31.5
    vertex -103.350607793674 -13.18 31.5
  endloop
endfacet
facet normal .786215963681492 0 -.617951825349179
  outer loop
    vertex -103.350607793674 -13.18 31.5
    vertex -128.10905 -36.82 0
    vertex -128.10905 -13.18 0
  endloop
endfacet
facet normal 0 0 -1
  outer loop
    vertex -128.10905 -13.18 0
    vertex -165.40505 -36.82 0
    vertex -165.40505 -13.18 0
  endloop
endfacet
facet normal 0 0 -1
  outer loop
    vertex -78.5 -13.1800000000001 31.5
    vertex -78.5 -36.82 31.5
    vertex -103.350607793674 -36.8200000000001 31.5
  endloop
endfacet
facet normal .786215963681492 0 -.617951825349179
  outer loop
    vertex -103.350607793674 -13.18 31.5
    vertex -103.350607793674 -36.8200000000001 31.5
    vertex -128.10905 -36.82 0
  endloop
endfacet
facet normal 0 0 -1
  outer loop
    vertex -128.10905 -13.18 0
    vertex -128.10905 -36.82 0
    vertex -165.40505 -36.82 0
  endloop
endfacet
facet normal -1 0 0
  outer loop
    vertex -165.40505 -63.18 10
    vertex -165.40505 -63.18 0
    vertex -165.40505 -86.82 0
  endloop
endfacet
facet normal -1 0 0
  outer loop
    vertex -165.40505 -63.18 10
    vertex -165.40505 -86.82 0
    vertex -165.40505 -86.82 10
  endloop
endfacet
facet normal 1 0 0
  outer loop
    vertex -78.5 -86.82 41.5
    vertex -78.5 -86.82 31.5
    vertex -78.5 -63.1800000000001 31.5
  endloop
endfacet
facet normal 1 0 0
  outer loop
    vertex -78.5 -86.82 41.5
    vertex -78.5 -63.1800000000001 31.5
    vertex -78.5 -63.1800000000001 41.5
  endloop
endfacet
facet normal 4.00295975987101E-15 1 2.00147987993551E-15
  outer loop
    vertex -78.5 -63.1800000000001 31.5
    vertex -103.350607793674 -63.18 31.5
    vertex -108.350607793674 -63.18 41.5
  endloop
endfacet
facet normal 0 1 0
  outer loop
    vertex -103.350607793674 -63.18 31.5
    vertex -128.10905 -63.18 0
    vertex -133.10905 -63.18 10
  endloop
endfacet
facet normal 0 1 0
  outer loop
    vertex -128.10905 -63.18 0
    vertex -165.40505 -63.18 0
    vertex -165.40505 -63.18 10
  endloop
endfacet
facet normal 3.33246088970742E-15 1 0
  outer loop
    vertex -78.5 -63.1800000000001 31.5
    vertex -108.350607793674 -63.18 41.5
    vertex -78.5 -63.1800000000001 41.5
  endloop
endfacet
facet normal 0 1 0
  outer loop
    vertex -103.350607793674 -63.18 31.5
    vertex -133.10905 -63.18 10
    vertex -108.350607793674 -63.18 41.5
  endloop
endfacet
facet normal 0 1 0
  outer loop
    vertex -128.10905 -63.18 0
    vertex -165.40505 -63.18 10
    vertex -133.10905 -63.18 10
  endloop
endfacet
facet normal 4.5748111541383E-15 -1 1.36560893492308E-14
  outer loop
    vertex -78.5 -86.82 31.5
    vertex -108.350607793674 -86.82 41.5
    vertex -103.350607793674 -86.8200000000001 31.5
  endloop
endfacet
facet normal -2.80649739979046E-15 -1 -1.40324869989523E-15
  outer loop
    vertex -103.350607793674 -86.8200000000001 31.5
    vertex -133.10905 -86.82 10
    vertex -128.10905 -86.82 0
  endloop
endfacet
facet normal 0 -1 0
  outer loop
    vertex -128.10905 -86.82 0
    vertex -165.40505 -86.82 10
    vertex -165.40505 -86.82 0
  endloop
endfacet
facet normal 0 -1 0
  outer loop
    vertex -78.5 -86.82 31.5
    vertex -78.5 -86.82 41.5
    vertex -108.350607793674 -86.82 41.5
  endloop
endfacet
facet normal -8.84046680933995E-15 -1 6.94845036749163E-15
  outer loop
    vertex -103.350607793674 -86.8200000000001 31.5
    vertex -108.350607793674 -86.82 41.5
    vertex -133.10905 -86.82 10
  endloop
endfacet
facet normal 0 -1 0
  outer loop
    vertex -128.10905 -86.82 0
    vertex -133.10905 -86.82 10
    vertex -165.40505 -86.82 10
  endloop
endfacet
facet normal 0 0 1
  outer loop
    vertex -78.5 -63.1800000000001 41.5
    vertex -108.350607793674 -63.18 41.5
    vertex -108.350607793674 -86.82 41.5
  endloop
endfacet
facet normal -.786215963681493 0 .617951825349179
  outer loop
    vertex -108.350607793674 -63.18 41.5
    vertex -133.10905 -63.18 10
    vertex -133.10905 -86.82 10
  endloop
endfacet
facet normal 0 0 1
  outer loop
    vertex -133.10905 -63.18 10
    vertex -165.40505 -63.18 10
    vertex -165.40505 -86.82 10
  endloop
endfacet
facet normal 0 0 1
  outer loop
    vertex -78.5 -63.1800000000001 41.5
    vertex -108.350607793674 -86.82 41.5
    vertex -78.5 -86.82 41.5
  endloop
endfacet
facet normal -.786215963681493 0 .617951825349179
  outer loop
    vertex -108.350607793674 -63.18 41.5
    vertex -133.10905 -86.82 10
    vertex -108.350607793674 -86.82 41.5
  endloop
endfacet
facet normal 0 0 1
  outer loop
    vertex -133.10905 -63.18 10
    vertex -165.40505 -86.82 10
    vertex -133.10905 -86.82 10
  endloop
endfacet
facet normal 0 0 -1
  outer loop
    vertex -78.5 -63.1800000000001 31.5
    vertex -103.350607793674 -86.8200000000001 31.5
    vertex -103.350607793674 -63.18 31.5
  endloop
endfacet
facet normal .786215963681493 0 -.617951825349179
  outer loop
    vertex -103.350607793674 -63.18 31.5
    vertex -128.10905 -86.82 0
    vertex -128.10905 -63.18 0
  endloop
endfacet
facet normal 0 0 -1
  outer loop
    vertex -128.10905 -63.18 0
    vertex -165.40505 -86.82 0
    vertex -165.40505 -63.18 0
  endloop
endfacet
facet normal 0 0 -1
  outer loop
    vertex -78.5 -63.1800000000001 31.5
    vertex -78.5 -86.82 31.5
    vertex -103.350607793674 -86.8200000000001 31.5
  endloop
endfacet
facet normal .786215963681493 0 -.617951825349179
  outer loop
    vertex -103.350607793674 -63.18 31.5
    vertex -103.350607793674 -86.8200000000001 31.5
    vertex -128.10905 -86.82 0
  endloop
endfacet
facet normal 0 0 -1
  outer loop
    vertex -128.10905 -63.18 0
    vertex -128.10905 -86.82 0
    vertex -165.40505 -86.82 0
  endloop
endfacet
facet normal 1 0 0
  outer loop
    vertex 165.40505 -86.82 10
    vertex 165.40505 -86.82 0
    vertex 165.40505 -63.18 0
  endloop
endfacet
facet normal 1 0 0
  outer loop
    vertex 165.40505 -86.82 10
    vertex 165.40505 -63.18 0
    vertex 165.40505 -63.18 10
  endloop
endfacet
facet normal -1 0 0
  outer loop
    vertex 78.5 -63.18 41.5
    vertex 78.5 -63.18 31.5
    vertex 78.5 -86.82 31.5
  endloop
endfacet
facet normal -1 0 0
  outer loop
    vertex 78.5 -63.18 41.5
    vertex 78.5 -86.82 31.5
    vertex 78.5 -86.82 41.5
  endloop
endfacet
facet normal 0 -1 0
  outer loop
    vertex 78.5 -86.82 31.5
    vertex 103.350607793674 -86.82 31.5
    vertex 108.350607793674 -86.82 41.5
  endloop
endfacet
facet normal 0 -1 0
  outer loop
    vertex 103.350607793674 -86.82 31.5
    vertex 128.10905 -86.82 0
    vertex 133.10905 -86.82 10
  endloop
endfacet
facet normal 0 -1 0
  outer loop
    vertex 128.10905 -86.82 0
    vertex 165.40505 -86.82 0
    vertex 165.40505 -86.82 10
  endloop
endfacet
facet normal 0 -1 0
  outer loop
    vertex 78.5 -86.82 31.5
    vertex 108.350607793674 -86.82 41.5
    vertex 78.5 -86.82 41.5
  endloop
endfacet
facet normal 0 -1 0
  outer loop
    vertex 103.350607793674 -86.82 31.5
    vertex 133.10905 -86.82 10
    vertex 108.350607793674 -86.82 41.5
  endloop
endfacet
facet normal 0 -1 0
  outer loop
    vertex 128.10905 -86.82 0
    vertex 165.40505 -86.82 10
    vertex 133.10905 -86.82 10
  endloop
endfacet
facet normal 0 1 0
  outer loop
    vertex 78.5 -63.18 31.5
    vertex 108.350607793674 -63.18 41.5
    vertex 103.350607793674 -63.18 31.5
  endloop
endfacet
facet normal 0 1 0
  outer loop
    vertex 103.350607793674 -63.18 31.5
    vertex 133.10905 -63.18 10
    vertex 128.10905 -63.18 0
  endloop
endfacet
facet normal 0 1 0
  outer loop
    vertex 128.10905 -63.18 0
    vertex 165.40505 -63.18 10
    vertex 165.40505 -63.18 0
  endloop
endfacet
facet normal 0 1 0
  outer loop
    vertex 78.5 -63.18 31.5
    vertex 78.5 -63.18 41.5
    vertex 108.350607793674 -63.18 41.5
  endloop
endfacet
facet normal 0 1 0
  outer loop
    vertex 103.350607793674 -63.18 31.5
    vertex 108.350607793674 -63.18 41.5
    vertex 133.10905 -63.18 10
  endloop
endfacet
facet normal 0 1 0
  outer loop
    vertex 128.10905 -63.18 0
    vertex 133.10905 -63.18 10
    vertex 165.40505 -63.18 10
  endloop
endfacet
facet normal 0 0 1
  outer loop
    vertex 78.5 -86.82 41.5
    vertex 108.350607793674 -86.82 41.5
    vertex 108.350607793674 -63.18 41.5
  endloop
endfacet
facet normal .786215963681493 0 .617951825349179
  outer loop
    vertex 108.350607793674 -86.82 41.5
    vertex 133.10905 -86.82 10
    vertex 133.10905 -63.18 10
  endloop
endfacet
facet normal 0 0 1
  outer loop
    vertex 133.10905 -86.82 10
    vertex 165.40505 -86.82 10
    vertex 165.40505 -63.18 10
  endloop
endfacet
facet normal 0 0 1
  outer loop
    vertex 78.5 -86.82 41.5
    vertex 108.350607793674 -63.18 41.5
    vertex 78.5 -63.18 41.5
  endloop
endfacet
facet normal .786215963681493 0 .617951825349179
  outer loop
    vertex 108.350607793674 -86.82 41.5
    vertex 133.10905 -63.18 10
    vertex 108.350607793674 -63.18 41.5
  endloop
endfacet
facet normal 0 0 1
  outer loop
    vertex 133.10905 -86.82 10
    vertex 165.40505 -63.18 10
    vertex 133.10905 -63.18 10
  endloop
endfacet
facet normal 0 0 -1
  outer loop
    vertex 78.5 -86.82 31.5
    vertex 103.350607793674 -63.18 31.5
    vertex 103.350607793674 -86.82 31.5
  endloop
endfacet
facet normal -.786215963681493 0 -.617951825349179
  outer loop
    vertex 103.350607793674 -86.82 31.5
    vertex 128.10905 -63.18 0
    vertex 128.10905 -86.82 0
  endloop
endfacet
facet normal 0 0 -1
  outer loop
    vertex 128.10905 -86.82 0
    vertex 165.40505 -63.18 0
    vertex 165.40505 -86.82 0
  endloop
endfacet
facet normal 0 0 -1
  outer loop
    vertex 78.5 -86.82 31.5
    vertex 78.5 -63.18 31.5
    vertex 103.350607793674 -63.18 31.5
  endloop
endfacet
facet normal -.786215963681493 0 -.617951825349179
  outer loop
    vertex 103.350607793674 -86.82 31.5
    vertex 103.350607793674 -63.18 31.5
    vertex 128.10905 -63.18 0
  endloop
endfacet
facet normal 0 0 -1
  outer loop
    vertex 128.10905 -86.82 0
    vertex 128.10905 -63.18 0
    vertex 165.40505 -63.18 0
  endloop
endfacet
facet normal 1 0 0
  outer loop
    vertex 165.40505 -36.82 10
    vertex 165.40505 -36.82 0
    vertex 165.40505 -13.18 0
  endloop
endfacet
facet normal 1 0 0
  outer loop
    vertex 165.40505 -36.82 10
    vertex 165.40505 -13.18 0
    vertex 165.40505 -13.18 10
  endloop
endfacet
facet normal -1 0 0
  outer loop
    vertex 78.5 -13.18 41.5
    vertex 78.5 -13.18 31.5
    vertex 78.5 -36.82 31.5
  endloop
endfacet
facet normal -1 0 0
  outer loop
    vertex 78.5 -13.18 41.5
    vertex 78.5 -36.82 31.5
    vertex 78.5 -36.82 41.5
  endloop
endfacet
facet normal 0 -1 0
  outer loop
    vertex 78.5 -36.82 31.5
    vertex 103.350607793674 -36.82 31.5
    vertex 108.350607793674 -36.82 41.5
  endloop
endfacet
facet normal 0 -1 0
  outer loop
    vertex 103.350607793674 -36.82 31.5
    vertex 128.10905 -36.82 0
    vertex 133.10905 -36.82 10
  endloop
endfacet
facet normal 0 -1 0
  outer loop
    vertex 128.10905 -36.82 0
    vertex 165.40505 -36.82 0
    vertex 165.40505 -36.82 10
  endloop
endfacet
facet normal 0 -1 0
  outer loop
    vertex 78.5 -36.82 31.5
    vertex 108.350607793674 -36.82 41.5
    vertex 78.5 -36.82 41.5
  endloop
endfacet
facet normal 0 -1 0
  outer loop
    vertex 103.350607793674 -36.82 31.5
    vertex 133.10905 -36.82 10
    vertex 108.350607793674 -36.82 41.5
  endloop
endfacet
facet normal 0 -1 0
  outer loop
    vertex 128.10905 -36.82 0
    vertex 165.40505 -36.82 10
    vertex 133.10905 -36.82 10
  endloop
endfacet
facet normal 0 1 0
  outer loop
    vertex 78.5 -13.18 31.5
    vertex 108.350607793674 -13.18 41.5
    vertex 103.350607793674 -13.18 31.5
  endloop
endfacet
facet normal 0 1 0
  outer loop
    vertex 103.350607793674 -13.18 31.5
    vertex 133.10905 -13.18 10
    vertex 128.10905 -13.18 0
  endloop
endfacet
facet normal 0 1 0
  outer loop
    vertex 128.10905 -13.18 0
    vertex 165.40505 -13.18 10
    vertex 165.40505 -13.18 0
  endloop
endfacet
facet normal 0 1 0
  outer loop
    vertex 78.5 -13.18 31.5
    vertex 78.5 -13.18 41.5
    vertex 108.350607793674 -13.18 41.5
  endloop
endfacet
facet normal 0 1 0
  outer loop
    vertex 103.350607793674 -13.18 31.5
    vertex 108.350607793674 -13.18 41.5
    vertex 133.10905 -13.18 10
  endloop
endfacet
facet normal 0 1 0
  outer loop
    vertex 128.10905 -13.18 0
    vertex 133.10905 -13.18 10
    vertex 165.40505 -13.18 10
  endloop
endfacet
facet normal 0 0 1
  outer loop
    vertex 78.5 -36.82 41.5
    vertex 108.350607793674 -36.82 41.5
    vertex 108.350607793674 -13.18 41.5
  endloop
endfacet
facet normal .786215963681492 0 .617951825349179
  outer loop
    vertex 108.350607793674 -36.82 41.5
    vertex 133.10905 -36.82 10
    vertex 133.10905 -13.18 10
  endloop
endfacet
facet normal 0 0 1
  outer loop
    vertex 133.10905 -36.82 10
    vertex 165.40505 -36.82 10
    vertex 165.40505 -13.18 10
  endloop
endfacet
facet normal 0 0 1
  outer loop
    vertex 78.5 -36.82 41.5
    vertex 108.350607793674 -13.18 41.5
    vertex 78.5 -13.18 41.5
  endloop
endfacet
facet normal .786215963681492 0 .617951825349179
  outer loop
    vertex 108.350607793674 -36.82 41.5
    vertex 133.10905 -13.18 10
    vertex 108.350607793674 -13.18 41.5
  endloop
endfacet
facet normal 0 0 1
  outer loop
    vertex 133.10905 -36.82 10
    vertex 165.40505 -13.18 10
    vertex 133.10905 -13.18 10
  endloop
endfacet
facet normal 0 0 -1
  outer loop
    vertex 78.5 -36.82 31.5
    vertex 103.350607793674 -13.18 31.5
    vertex 103.350607793674 -36.82 31.5
  endloop
endfacet
facet normal -.786215963681492 0 -.617951825349179
  outer loop
    vertex 103.350607793674 -36.82 31.5
    vertex 128.10905 -13.18 0
    vertex 128.10905 -36.82 0
  endloop
endfacet
facet normal 0 0 -1
  outer loop
    vertex 128.10905 -36.82 0
    vertex 165.40505 -13.18 0
    vertex 165.40505 -36.82 0
  endloop
endfacet
facet normal 0 0 -1
  outer loop
    vertex 78.5 -36.82 31.5
    vertex 78.5 -13.18 31.5
    vertex 103.350607793674 -13.18 31.5
  endloop
endfacet
facet normal -.786215963681492 0 -.617951825349179
  outer loop
    vertex 103.350607793674 -36.82 31.5
    vertex 103.350607793674 -13.18 31.5
    vertex 128.10905 -13.18 0
  endloop
endfacet
facet normal 0 0 -1
  outer loop
    vertex 128.10905 -36.82 0
    vertex 128.10905 -13.18 0
    vertex 165.40505 -13.18 0
  endloop
endfacet
facet normal 1 0 0
  outer loop
    vertex 165.40505 13.18 10
    vertex 165.40505 13.18 0
    vertex 165.40505 36.82 0
  endloop
endfacet
facet normal 1 0 0
  outer loop
    vertex 165.40505 13.18 10
    vertex 165.40505 36.82 0
    vertex 165.40505 36.82 10
  endloop
endfacet
facet normal -1 0 0
  outer loop
    vertex 78.5 36.82 41.5
    vertex 78.5 36.82 31.5
    vertex 78.5 13.18 31.5
  endloop
endfacet
facet normal -1 0 0
  outer loop
    vertex 78.5 36.82 41.5
    vertex 78.5 13.18 31.5
    vertex 78.5 13.18 41.5
  endloop
endfacet
facet normal 0 -1 0
  outer loop
    vertex 78.5 13.18 31.5
    vertex 103.350607793674 13.18 31.5
    vertex 108.350607793674 13.18 41.5
  endloop
endfacet
facet normal 0 -1 0
  outer loop
    vertex 103.350607793674 13.18 31.5
    vertex 128.10905 13.18 0
    vertex 133.10905 13.18 10
  endloop
endfacet
facet normal 0 -1 0
  outer loop
    vertex 128.10905 13.18 0
    vertex 165.40505 13.18 0
    vertex 165.40505 13.18 10
  endloop
endfacet
facet normal 0 -1 0
  outer loop
    vertex 78.5 13.18 31.5
    vertex 108.350607793674 13.18 41.5
    vertex 78.5 13.18 41.5
  endloop
endfacet
facet normal 0 -1 0
  outer loop
    vertex 103.350607793674 13.18 31.5
    vertex 133.10905 13.18 10
    vertex 108.350607793674 13.18 41.5
  endloop
endfacet
facet normal 0 -1 0
  outer loop
    vertex 128.10905 13.18 0
    vertex 165.40505 13.18 10
    vertex 133.10905 13.18 10
  endloop
endfacet
facet normal 0 1 0
  outer loop
    vertex 78.5 36.82 31.5
    vertex 108.350607793674 36.82 41.5
    vertex 103.350607793674 36.82 31.5
  endloop
endfacet
facet normal 0 1 0
  outer loop
    vertex 103.350607793674 36.82 31.5
    vertex 133.10905 36.82 10
    vertex 128.10905 36.82 0
  endloop
endfacet
facet normal 0 1 0
  outer loop
    vertex 128.10905 36.82 0
    vertex 165.40505 36.82 10
    vertex 165.40505 36.82 0
  endloop
endfacet
facet normal 0 1 0
  outer loop
    vertex 78.5 36.82 31.5
    vertex 78.5 36.82 41.5
    vertex 108.350607793674 36.82 41.5
  endloop
endfacet
facet normal 0 1 0
  outer loop
    vertex 103.350607793674 36.82 31.5
    vertex 108.350607793674 36.82 41.5
    vertex 133.10905 36.82 10
  endloop
endfacet
facet normal 0 1 0
  outer loop
    vertex 128.10905 36.82 0
    vertex 133.10905 36.82 10
    vertex 165.40505 36.82 10
  endloop
endfacet
facet normal 0 0 1
  outer loop
    vertex 78.5 13.18 41.5
    vertex 108.350607793674 13.18 41.5
    vertex 108.350607793674 36.82 41.5
  endloop
endfacet
facet normal .786215963681492 0 .617951825349179
  outer loop
    vertex 108.350607793674 13.18 41.5
    vertex 133.10905 13.18 10
    vertex 133.10905 36.82 10
  endloop
endfacet
facet normal 0 0 1
  outer loop
    vertex 133.10905 13.18 10
    vertex 165.40505 13.18 10
    vertex 165.40505 36.82 10
  endloop
endfacet
facet normal 0 0 1
  outer loop
    vertex 78.5 13.18 41.5
    vertex 108.350607793674 36.82 41.5
    vertex 78.5 36.82 41.5
  endloop
endfacet
facet normal .786215963681492 0 .617951825349179
  outer loop
    vertex 108.350607793674 13.18 41.5
    vertex 133.10905 36.82 10
    vertex 108.350607793674 36.82 41.5
  endloop
endfacet
facet normal 0 0 1
  outer loop
    vertex 133.10905 13.18 10
    vertex 165.40505 36.82 10
    vertex 133.10905 36.82 10
  endloop
endfacet
facet normal 0 0 -1
  outer loop
    vertex 78.5 13.18 31.5
    vertex 103.350607793674 36.82 31.5
    vertex 103.350607793674 13.18 31.5
  endloop
endfacet
facet normal -.786215963681492 0 -.617951825349179
  outer loop
    vertex 103.350607793674 13.18 31.5
    vertex 128.10905 36.82 0
    vertex 128.10905 13.18 0
  endloop
endfacet
facet normal 0 0 -1
  outer loop
    vertex 128.10905 13.18 0
    vertex 165.40505 36.82 0
    vertex 165.40505 13.18 0
  endloop
endfacet
facet normal 0 0 -1
  outer loop
    vertex 78.5 13.18 31.5
    vertex 78.5 36.82 31.5
    vertex 103.350607793674 36.82 31.5
  endloop
endfacet
facet normal -.786215963681492 0 -.617951825349179
  outer loop
    vertex 103.350607793674 13.18 31.5
    vertex 103.350607793674 36.82 31.5
    vertex 128.10905 36.82 0
  endloop
endfacet
facet normal 0 0 -1
  outer loop
    vertex 128.10905 13.18 0
    vertex 128.10905 36.82 0
    vertex 165.40505 36.82 0
  endloop
endfacet
facet normal 1 0 0
  outer loop
    vertex 165.40505 63.18 10
    vertex 165.40505 63.18 0
    vertex 165.40505 86.82 0
  endloop
endfacet
facet normal 1 0 0
  outer loop
    vertex 165.40505 63.18 10
    vertex 165.40505 86.82 0
    vertex 165.40505 86.82 10
  endloop
endfacet
facet normal -1 0 0
  outer loop
    vertex 78.5 86.82 41.5
    vertex 78.5 86.82 31.5
    vertex 78.5 63.18 31.5
  endloop
endfacet
facet normal -1 0 0
  outer loop
    vertex 78.5 86.82 41.5
    vertex 78.5 63.18 31.5
    vertex 78.5 63.18 41.5
  endloop
endfacet
facet normal 0 -1 0
  outer loop
    vertex 78.5 63.18 31.5
    vertex 103.350607793674 63.18 31.5
    vertex 108.350607793674 63.18 41.5
  endloop
endfacet
facet normal 0 -1 0
  outer loop
    vertex 103.350607793674 63.18 31.5
    vertex 128.10905 63.18 0
    vertex 133.10905 63.18 10
  endloop
endfacet
facet normal 0 -1 0
  outer loop
    vertex 128.10905 63.18 0
    vertex 165.40505 63.18 0
    vertex 165.40505 63.18 10
  endloop
endfacet
facet normal 0 -1 0
  outer loop
    vertex 78.5 63.18 31.5
    vertex 108.350607793674 63.18 41.5
    vertex 78.5 63.18 41.5
  endloop
endfacet
facet normal 0 -1 0
  outer loop
    vertex 103.350607793674 63.18 31.5
    vertex 133.10905 63.18 10
    vertex 108.350607793674 63.18 41.5
  endloop
endfacet
facet normal 0 -1 0
  outer loop
    vertex 128.10905 63.18 0
    vertex 165.40505 63.18 10
    vertex 133.10905 63.18 10
  endloop
endfacet
facet normal 0 1 0
  outer loop
    vertex 78.5 86.82 31.5
    vertex 108.350607793674 86.82 41.5
    vertex 103.350607793674 86.82 31.5
  endloop
endfacet
facet normal 0 1 0
  outer loop
    vertex 103.350607793674 86.82 31.5
    vertex 133.10905 86.82 10
    vertex 128.10905 86.82 0
  endloop
endfacet
facet normal 0 1 0
  outer loop
    vertex 128.10905 86.82 0
    vertex 165.40505 86.82 10
    vertex 165.40505 86.82 0
  endloop
endfacet
facet normal 0 1 0
  outer loop
    vertex 78.5 86.82 31.5
    vertex 78.5 86.82 41.5
    vertex 108.350607793674 86.82 41.5
  endloop
endfacet
facet normal 0 1 0
  outer loop
    vertex 103.350607793674 86.82 31.5
    vertex 108.350607793674 86.82 41.5
    vertex 133.10905 86.82 10
  endloop
endfacet
facet normal 0 1 0
  outer loop
    vertex 128.10905 86.82 0
    vertex 133.10905 86.82 10
    vertex 165.40505 86.82 10
  endloop
endfacet
facet normal 0 0 1
  outer loop
    vertex 78.5 63.18 41.5
    vertex 108.350607793674 63.18 41.5
    vertex 108.350607793674 86.82 41.5
  endloop
endfacet
facet normal .786215963681493 0 .617951825349179
  outer loop
    vertex 108.350607793674 63.18 41.5
    vertex 133.10905 63.18 10
    vertex 133.10905 86.82 10
  endloop
endfacet
facet normal 0 0 1
  outer loop
    vertex 133.10905 63.18 10
    vertex 165.40505 63.18 10
    vertex 165.40505 86.82 10
  endloop
endfacet
facet normal 0 0 1
  outer loop
    vertex 78.5 63.18 41.5
    vertex 108.350607793674 86.82 41.5
    vertex 78.5 86.82 41.5
  endloop
endfacet
facet normal .786215963681493 0 .617951825349179
  outer loop
    vertex 108.350607793674 63.18 41.5
    vertex 133.10905 86.82 10
    vertex 108.350607793674 86.82 41.5
  endloop
endfacet
facet normal 0 0 1
  outer loop
    vertex 133.10905 63.18 10
    vertex 165.40505 86.82 10
    vertex 133.10905 86.82 10
  endloop
endfacet
facet normal 0 0 -1
  outer loop
    vertex 78.5 63.18 31.5
    vertex 103.350607793674 86.82 31.5
    vertex 103.350607793674 63.18 31.5
  endloop
endfacet
facet normal -.786215963681493 0 -.617951825349179
  outer loop
    vertex 103.350607793674 63.18 31.5
    vertex 128.10905 86.82 0
    vertex 128.10905 63.18 0
  endloop
endfacet
facet normal 0 0 -1
  outer loop
    vertex 128.10905 63.18 0
    vertex 165.40505 86.82 0
    vertex 165.40505 63.18 0
  endloop
endfacet
facet normal 0 0 -1
  outer loop
    vertex 78.5 63.18 31.5
    vertex 78.5 86.82 31.5
    vertex 103.350607793674 86.82 31.5
  endloop
endfacet
facet normal -.786215963681493 0 -.617951825349179
  outer loop
    vertex 103.350607793674 63.18 31.5
    vertex 103.350607793674 86.82 31.5
    vertex 128.10905 86.82 0
  endloop
endfacet
facet normal 0 0 -1
  outer loop
    vertex 128.10905 63.18 0
    vertex 128.10905 86.82 0
    vertex 165.40505 86.82 0
  endloop
endfacet
facet normal 0 0 -1
  outer loop
    vertex 47.5 -65 2
    vertex -47.5 -65 2
    vertex 47.5 65 2
  endloop
endfacet
facet normal 0 0 -1
  outer loop
    vertex 47.5 65 2
    vertex -47.5 -65 2
    vertex -47.5 65 2
  endloop
endfacet
facet normal 1 0 0
  outer loop
    vertex 47.5 -65 2
    vertex 47.5 65 2
    vertex 47.5 65 4
  endloop
endfacet
facet normal 0 1 0
  outer loop
    vertex 47.5 65 2
    vertex -47.5 65 2
    vertex -47.5 65 4
  endloop
endfacet
facet normal -1 0 0
  outer loop
    vertex -47.5 65 2
    vertex -47.5 -65 2
    vertex -47.5 -65 4
  endloop
endfacet
facet normal 0 -1 0
  outer loop
    vertex -47.5 -65 2
    vertex 47.5 -65 2
    vertex 47.5 -65 4
  endloop
endfacet
facet normal 1 0 0
  outer loop
    vertex 47.5 -65 4
    vertex 47.5 -65 2
    vertex 47.5 65 4
  endloop
endfacet
facet normal 0 1 0
  outer loop
    vertex 47.5 65 4
    vertex 47.5 65 2
    vertex -47.5 65 4
  endloop
endfacet
facet normal -1 0 0
  outer loop
    vertex -47.5 65 4
    vertex -47.5 65 2
    vertex -47.5 -65 4
  endloop
endfacet
facet normal 0 -1 0
  outer loop
    vertex -47.5 -65 4
    vertex -47.5 -65 2
    vertex 47.5 -65 4
  endloop
endfacet
facet normal 0 0 1
  outer loop
    vertex 47.5 -65 4
    vertex 47.5 65 4
    vertex -47.5 -65 4
  endloop
endfacet
facet normal 0 0 1
  outer loop
    vertex 47.5 65 4
    vertex -47.5 65 4
    vertex -47.5 -65 4
  endloop
endfacet
endsolid SOIC-8
